<svg width="1304" height="272" viewBox="0 0 1304 272" fill="none" xmlns="http://www.w3.org/2000/svg">
<circle cx="125" cy="136" r="121" fill="#212121" stroke="#212121" stroke-width="8"/>
<path fill-rule="evenodd" clip-rule="evenodd" d="M199.967 162.327C183.244 162.684 166.665 162.538 149.61 162.538C147.363 162.538 145.094 162.665 143.022 162.113C142.515 160.135 142.619 157.977 142.703 155.958C142.964 149.789 142.808 143.259 142.808 136.748C142.808 111.698 142.834 85.4901 143.128 60.321C143.119 60.1681 143.11 60.0172 143.233 60C144.59 60.9308 146.27 64.4512 147.164 66.1555C148.346 68.4069 149.664 70.6196 150.776 72.522C153.338 76.9022 155.534 81.1617 157.895 85.2595C162.827 93.8237 167.215 102.623 172.026 110.95C179.39 123.696 186 136.64 193.17 149.484C194.956 152.681 196.614 155.885 198.481 159.14C199.046 160.131 200.084 161.036 199.967 162.327Z" fill="white"/>
<path fill-rule="evenodd" clip-rule="evenodd" d="M132.716 60.4238C132.787 60.4238 132.858 60.4238 132.929 60.4238C133.499 62.4146 133.248 64.5088 133.248 66.5793C133.248 81.4045 133.063 96.7834 133.141 111.374C133.231 128.058 133.328 145.426 132.821 162.111C129.729 162.688 126.279 162.429 122.727 162.429C102.237 162.434 82.1666 162.218 61.4259 162.218C58.0727 162.218 54.7151 162.449 51.4395 161.899C51.5106 160.482 52.6794 159.413 53.4579 158.398C55.8903 155.229 58.4867 152.077 61.0011 148.841C64.3177 144.577 67.6667 140.285 70.9876 135.998C77.582 127.481 84.4589 119.171 91.2797 110.736C97.9561 102.48 104.941 94.1226 111.785 85.6812C115.154 81.5273 118.647 77.3239 121.983 73.0536C125.414 68.6692 129.026 64.3601 132.716 60.4238Z" fill="#699DDF"/>
<path fill-rule="evenodd" clip-rule="evenodd" d="M200.289 171.349C200.211 172.995 198.911 174.214 198.057 175.49C195.503 179.303 192.478 183.039 189.452 186.422C185.364 190.992 180.781 195.137 175.748 198.84C165.803 206.157 153.106 211.856 136.438 211.688C115.62 211.472 102.664 201.547 90.1159 192.791C85.0138 189.236 79.8858 185.775 74.2855 182.498C72.9657 181.725 71.4282 181.016 69.9295 180.374C67.2512 179.221 64.478 177.735 60.6848 177.823C57.5105 177.894 54.567 179.321 52.5054 180.794C51.8542 181.262 51.2223 182.212 50.2735 181.964C49.9047 180.411 50.06 178.34 50.06 176.339C50.06 174.378 49.7646 172.245 50.4848 170.922C50.6422 170.868 50.7544 170.767 50.9096 170.711C63.4774 170.597 76.0128 170.812 88.518 170.817C113.503 170.821 137.806 170.918 163.101 170.922C174.002 170.927 184.853 171.028 195.93 171.028C197.384 171.028 198.917 170.78 200.289 171.349ZM162.04 179.629C159.4 184.985 163.847 190.321 168.628 190.347C173.622 190.373 177.894 184.33 174.894 179.31C173.717 177.336 170.873 175.494 167.351 175.914C164.528 176.246 162.799 178.086 162.04 179.629Z" fill="#FF758A"/>
<path d="M432.6 163C436.2 163 437.533 164.733 436.6 168.2L430.6 195.4C429.933 198.467 428.333 200 425.8 200H322.4C321.067 200 319.933 199.6 319 198.8C318.067 197.867 317.6 196.8 317.6 195.6V193.6C317.6 192.667 318.867 190.2 321.4 186.2L395.4 70H349.4C347.133 70 344.8 71.2 342.4 73.6C340.133 76 338.2 78.6667 336.6 81.6C335.133 84.5333 333.2 87.2 330.8 89.6C328.533 92 326.267 93.2 324 93.2H323C319 93.2 317.467 91.0667 318.4 86.8L324 63.6C324.8 59.8667 326.867 58 330.2 58H427.6C428.8 58 429.8 58.4667 430.6 59.4C431.533 60.2 432 61.2 432 62.4V64.8C432 65.7333 430.533 68.6 427.6 73.4L354.8 188H402.8C406 188 409.067 186.733 412 184.2C414.933 181.533 417.333 178.667 419.2 175.6C421.067 172.4 423.133 169.533 425.4 167C427.8 164.333 430 163 432 163H432.6ZM525.619 169.6C526.819 168 528.285 167.467 530.019 168C531.752 168.533 532.552 169.8 532.419 171.8C531.752 178.733 527.752 185.533 520.419 192.2C513.085 198.733 503.552 202 491.819 202C477.685 202 466.085 197.333 457.019 188C447.952 178.667 443.419 166.4 443.419 151.2C443.419 136.933 448.152 125.2 457.619 116C467.085 106.667 478.485 102 491.819 102C503.952 102 513.285 104.867 519.819 110.6C526.352 116.333 529.619 122.933 529.619 130.4C529.619 136.533 526.685 140.933 520.819 143.6L476.419 163.8C481.885 175.4 490.685 181.2 502.819 181.2C507.885 181.2 512.419 180.133 516.419 178C520.552 175.733 523.619 172.933 525.619 169.6ZM488.219 110.8C483.019 110.8 478.885 113.333 475.819 118.4C472.752 123.333 471.219 129.667 471.219 137.4C471.219 143.933 471.885 149.667 473.219 154.6L499.019 141.6C502.485 139.867 504.219 136.733 504.219 132.2C504.219 127.667 502.752 123 499.819 118.2C496.885 113.267 493.019 110.8 488.219 110.8ZM593.861 53.4C602.128 53.4 609.194 55.7333 615.061 60.4C621.061 65.0667 624.061 70.5333 624.061 76.8C624.061 79.4667 623.061 81.8667 621.061 84C619.194 86.1333 616.461 87.2 612.861 87.2C608.861 87.2 605.728 86.3333 603.461 84.6C601.194 82.8667 599.728 80.8 599.061 78.4C598.394 75.8667 597.794 73.4 597.261 71C596.861 68.4667 595.928 66.3333 594.461 64.6C592.994 62.7333 590.861 61.8 588.061 61.8C584.728 61.8 582.261 63.2667 580.661 66.2C579.061 69 578.328 72.6667 578.461 77.2C578.728 81.7333 579.261 86.2667 580.061 90.8C580.994 95.3333 582.194 99.7333 583.661 104H608.061C609.128 104 610.061 104.4 610.861 105.2C611.661 106 612.061 106.933 612.061 108V111.8C612.061 112.867 611.661 113.8 610.861 114.6C610.061 115.267 609.128 115.6 608.061 115.6H584.461V180.6C584.461 183 585.261 185.133 586.861 187C588.594 188.867 590.261 190.467 591.861 191.8C593.594 193.133 594.461 194.467 594.461 195.8V196.6C594.461 198.867 593.194 200 590.661 200H551.661C548.861 200 547.461 198.867 547.461 196.6V195.8C547.461 194.467 548.794 192.4 551.461 189.6C554.128 186.8 555.461 183.8 555.461 180.6V115.6H541.261C538.461 115.6 537.061 114.333 537.061 111.8V108C537.061 106.933 537.461 106 538.261 105.2C539.061 104.4 540.061 104 541.261 104H555.461V91.4C555.461 80.2 558.728 71.0667 565.261 64C571.794 56.9333 581.328 53.4 593.861 53.4ZM678.27 102C684.004 102 688.47 103.733 691.67 107.2C695.004 110.533 696.67 114.867 696.67 120.2C696.67 130.733 692.404 136 683.87 136C680.404 136 677.67 135.133 675.67 133.4C673.804 131.533 672.67 129.533 672.27 127.4C671.87 125.267 671.07 123.333 669.87 121.6C668.67 119.733 666.87 118.8 664.47 118.8C660.87 118.8 658.204 120.933 656.47 125.2C654.737 129.467 653.87 134.667 653.87 140.8V180.8C653.87 183.2 654.67 185.333 656.27 187.2C658.004 188.933 659.67 190.467 661.27 191.8C663.004 193.133 663.87 194.467 663.87 195.8V196.6C663.87 198.867 662.404 200 659.47 200H622.47C619.404 200 617.87 198.867 617.87 196.6V195.8C617.87 194.467 619.137 192.4 621.67 189.6C624.337 186.8 625.67 183.867 625.67 180.8V134C625.67 130.8 624.137 127.933 621.07 125.4C618.004 122.867 616.47 120.933 616.47 119.6V118.8C616.47 116.933 617.87 115.333 620.67 114L644.67 102.8C648.937 100.8 651.07 102.133 651.07 106.8V121.8C655.604 108.6 664.67 102 678.27 102ZM782.845 169.6C784.045 168 785.512 167.467 787.245 168C788.979 168.533 789.779 169.8 789.645 171.8C788.979 178.733 784.979 185.533 777.645 192.2C770.312 198.733 760.779 202 749.045 202C734.912 202 723.312 197.333 714.245 188C705.179 178.667 700.645 166.4 700.645 151.2C700.645 136.933 705.379 125.2 714.845 116C724.312 106.667 735.712 102 749.045 102C761.179 102 770.512 104.867 777.045 110.6C783.579 116.333 786.845 122.933 786.845 130.4C786.845 136.533 783.912 140.933 778.045 143.6L733.645 163.8C739.112 175.4 747.912 181.2 760.045 181.2C765.112 181.2 769.645 180.133 773.645 178C777.779 175.733 780.845 172.933 782.845 169.6ZM745.445 110.8C740.245 110.8 736.112 113.333 733.045 118.4C729.979 123.333 728.445 129.667 728.445 137.4C728.445 143.933 729.112 149.667 730.445 154.6L756.245 141.6C759.712 139.867 761.445 136.733 761.445 132.2C761.445 127.667 759.979 123 757.045 118.2C754.112 113.267 750.245 110.8 745.445 110.8ZM903.688 180.6C903.954 183.8 905.221 186.8 907.488 189.6C909.754 192.4 910.888 194.533 910.888 196V196.8C910.888 199.067 909.354 200.2 906.288 200.2H871.688C868.621 200.2 867.088 199.067 867.088 196.8V196C867.088 194.667 868.288 192.6 870.688 189.8C873.221 187 874.421 183.933 874.288 180.6L872.288 143.6C871.354 123.467 865.554 113.4 854.888 113.4C849.554 113.4 845.354 115.4 842.288 119.4C839.354 123.4 837.888 128.733 837.888 135.4V180.8C837.888 184 839.288 187 842.088 189.8C845.021 192.6 846.487 194.667 846.487 196V196.8C846.487 199.067 844.954 200.2 841.888 200.2H804.688C801.621 200.2 800.088 199.067 800.088 196.8V196C800.088 194.667 801.488 192.6 804.288 189.8C807.221 187 808.688 184 808.688 180.8V134.2C808.688 132.2 808.154 130.4 807.088 128.8C806.154 127.2 805.021 126.067 803.688 125.4C802.488 124.6 801.354 123.667 800.287 122.6C799.354 121.533 798.888 120.467 798.888 119.4V118.6C798.888 117.133 800.221 115.733 802.888 114.4L826.688 102.8C828.954 101.733 830.621 101.667 831.688 102.6C832.888 103.4 833.488 104.867 833.488 107V118.2C839.221 107.4 849.088 102 863.088 102C873.221 102 881.821 105.4 888.888 112.2C896.088 119 900.221 129.8 901.288 144.6L903.688 180.6ZM962 201.8C949.467 201.8 939.2 199.533 931.2 195C923.2 190.467 919.2 185 919.2 178.6C919.2 175 920.267 172.267 922.4 170.4C924.667 168.533 927.6 167.6 931.2 167.6C935.067 167.6 938.2 169 940.6 171.8C943 174.467 944.667 177.467 945.6 180.8C946.667 184.133 948.533 187.2 951.2 190C954 192.667 957.6 194 962 194C966.267 194 969.733 192.867 972.4 190.6C975.2 188.333 976.6 185.067 976.6 180.8C976.6 176 974.667 172.2 970.8 169.4C967.067 166.6 962.467 164.533 957 163.2C951.533 161.733 946.067 160.133 940.6 158.4C935.133 156.533 930.467 153.4 926.6 149C922.867 144.467 921 138.6 921 131.4C921 122.867 924.733 115.867 932.2 110.4C939.8 104.8 949.6 102 961.6 102C973.733 102 983.6 104.4 991.2 109.2C998.933 113.867 1002.8 119.467 1002.8 126C1002.8 128.933 1001.67 131.4 999.4 133.4C997.267 135.4 994.6 136.4 991.4 136.4C987.667 136.4 984.667 135.067 982.4 132.4C980.133 129.6 978.533 126.6 977.6 123.4C976.667 120.067 975 117.067 972.6 114.4C970.2 111.6 967.067 110.2 963.2 110.2C959.333 110.2 956.2 111.533 953.8 114.2C951.4 116.733 950.2 119.867 950.2 123.6C950.2 127.333 951.2 130.467 953.2 133C955.2 135.533 957.8 137.467 961 138.8C964.2 140.133 967.733 141.4 971.6 142.6C975.467 143.667 979.333 144.933 983.2 146.4C987.2 147.733 990.8 149.4 994 151.4C997.2 153.4 999.8 156.267 1001.8 160C1003.8 163.6 1004.8 168 1004.8 173.2C1004.8 181.467 1000.93 188.333 993.2 193.8C985.467 199.133 975.067 201.8 962 201.8ZM1117.9 180.4C1118.17 183.6 1119.44 186.6 1121.7 189.4C1123.97 192.2 1125.1 194.333 1125.1 195.8V196.6C1125.1 198.867 1123.64 200 1120.7 200H1085.9C1082.97 200 1081.5 198.867 1081.5 196.6V195.8C1081.5 194.467 1082.7 192.4 1085.1 189.6C1087.64 186.8 1088.84 183.8 1088.7 180.6L1086.7 142.2C1085.77 123 1079.97 113.4 1069.3 113.4C1063.97 113.4 1059.77 115.4 1056.7 119.4C1053.77 123.4 1052.3 128.733 1052.3 135.4V180.8C1052.3 183.867 1053.7 186.8 1056.5 189.6C1059.44 192.4 1060.9 194.467 1060.9 195.8V196.6C1060.9 198.867 1059.3 200 1056.1 200H1019.1C1016.04 200 1014.5 198.867 1014.5 196.6V195.8C1014.5 194.467 1015.9 192.4 1018.7 189.6C1021.5 186.8 1022.9 183.867 1022.9 180.8V81.2C1022.9 78 1021.37 75.1333 1018.3 72.6C1015.37 70.0667 1013.9 68.1333 1013.9 66.8V66.2C1013.9 64.2 1015.24 62.5333 1017.9 61.2L1044.3 49.6C1046.57 48.6667 1048.3 48.5333 1049.5 49.2C1050.84 49.8667 1051.5 51.2 1051.5 53.2L1051.3 113.2C1057.57 105.733 1066.3 102 1077.5 102C1087.64 102 1096.24 105.333 1103.3 112C1110.37 118.533 1114.37 128.867 1115.3 143L1117.9 180.4ZM1171.65 85C1168.19 88.2 1163.52 89.8 1157.65 89.8C1151.79 89.8 1146.99 88.2 1143.25 85C1139.65 81.6667 1137.85 77.4 1137.85 72.2C1137.85 67.1333 1139.65 63 1143.25 59.8C1146.99 56.4667 1151.79 54.8 1157.65 54.8C1163.52 54.8 1168.19 56.4667 1171.65 59.8C1175.25 63 1177.05 67.1333 1177.05 72.2C1177.05 77.4 1175.25 81.6667 1171.65 85ZM1139.45 200C1136.52 200 1135.05 198.867 1135.05 196.6V195.8C1135.05 194.467 1136.32 192.4 1138.85 189.6C1141.39 186.8 1142.65 183.8 1142.65 180.6V135.4C1142.65 132.067 1141.39 128.933 1138.85 126C1136.32 123.067 1135.05 121.067 1135.05 120V119.4C1135.05 118.067 1136.45 116.667 1139.25 115.2L1164.25 102.8C1166.79 101.733 1168.79 101.667 1170.25 102.6C1171.72 103.4 1172.45 104.8 1172.45 106.8V180.6C1172.45 183.8 1173.85 186.8 1176.65 189.6C1179.45 192.4 1180.85 194.467 1180.85 195.8V196.6C1180.85 198.867 1179.32 200 1176.25 200H1139.45ZM1251.27 102C1263.8 102 1274.74 106.333 1284.07 115C1293.4 123.667 1298.07 135.467 1298.07 150.4C1298.07 165.467 1293.47 177.867 1284.27 187.6C1275.2 197.2 1264.27 202 1251.47 202C1242.14 202 1234.34 199.4 1228.07 194.2V224C1228.07 227.2 1229.47 230.2 1232.27 233C1235.07 235.8 1236.47 237.867 1236.47 239.2V240C1236.47 242.267 1234.94 243.4 1231.87 243.4H1195.67C1192.6 243.4 1191.07 242.267 1191.07 240V239.2C1191.07 237.867 1192.34 235.8 1194.87 233C1197.54 230.2 1198.87 227.2 1198.87 224V134C1198.87 131.067 1197.34 128.4 1194.27 126C1191.2 123.467 1189.67 121.467 1189.67 120V119C1189.67 117.133 1191 115.533 1193.67 114.2L1216.07 103.2C1221.14 100.667 1223.67 101.867 1223.67 106.8L1223.47 115.2C1229.07 106.4 1238.34 102 1251.27 102ZM1248.47 193.4C1254.87 193.4 1259.8 190.733 1263.27 185.4C1266.87 180.067 1268.67 172.4 1268.67 162.4C1268.67 148.8 1266.47 136.8 1262.07 126.4C1257.67 115.867 1251.74 110.6 1244.27 110.6C1240.14 110.6 1236.54 112.133 1233.47 115.2C1230.4 118.133 1228.6 122 1228.07 126.8V165C1228.07 172.733 1230.14 179.4 1234.27 185C1238.4 190.6 1243.14 193.4 1248.47 193.4Z" fill="#121212"/></svg>
