<svg width="240" height="177" viewBox="0 0 240 177" fill="none" xmlns="http://www.w3.org/2000/svg">
<g clip-path="url(#clip0_3356_1446)">
<path d="M228 0H12C5.37258 0 0 5.37258 0 12V165C0 171.627 5.37258 177 12 177H228C234.627 177 240 171.627 240 165V12C240 5.37258 234.627 0 228 0Z" fill="#EEF7E2"/>
<path d="M42 75C55.2548 75 66 63.8071 66 50C66 36.1929 55.2548 25 42 25C28.7452 25 18 36.1929 18 50C18 63.8071 28.7452 75 42 75Z" fill="white"/>
<path d="M19.5 109C19.2067 109 19.06 108.907 19.06 108.72V108.66C19.06 108.54 19.1867 108.367 19.44 108.14C19.6933 107.9 19.82 107.633 19.82 107.34V96.46C19.82 96.1667 19.6933 95.9067 19.44 95.68C19.1867 95.44 19.06 95.26 19.06 95.14V95.08C19.06 94.8933 19.2067 94.8 19.5 94.8H23.9C26.3533 94.8 28.3667 95.4733 29.94 96.82C31.5267 98.1533 32.32 99.8267 32.32 101.84C32.32 104.013 31.6133 105.753 30.2 107.06C28.8 108.353 27 109 24.8 109H19.5ZM23.4 107.98H24.66C26.18 107.98 27.42 107.507 28.38 106.56C29.3533 105.613 29.84 104.34 29.84 102.74C29.84 100.753 29.2267 99.1067 28 97.8C26.7733 96.48 25.2533 95.82 23.44 95.82H22.88C22.4267 95.82 22.2 96.0667 22.2 96.56V106.56C22.2 107.013 22.3067 107.367 22.52 107.62C22.7333 107.86 23.0267 107.98 23.4 107.98ZM41.76 106.06C41.8667 105.913 42 105.86 42.16 105.9C42.3333 105.94 42.4133 106.06 42.4 106.26C42.2933 106.967 41.88 107.633 41.16 108.26C40.44 108.887 39.5 109.2 38.34 109.2C36.98 109.2 35.8467 108.733 34.94 107.8C34.0467 106.867 33.6 105.64 33.6 104.12C33.6 102.707 34.06 101.533 34.98 100.6C35.9133 99.6667 37.0467 99.2 38.38 99.2C39.58 99.2 40.5 99.5 41.14 100.1C41.7933 100.687 42.12 101.367 42.12 102.14C42.12 102.833 41.78 103.3 41.1 103.54L36.26 105.32C36.5133 106.013 36.8933 106.553 37.4 106.94C37.9067 107.327 38.5067 107.52 39.2 107.52C39.8 107.52 40.32 107.387 40.76 107.12C41.2133 106.84 41.5467 106.487 41.76 106.06ZM37.98 99.96C37.3533 99.96 36.8533 100.26 36.48 100.86C36.1067 101.46 35.92 102.247 35.92 103.22C35.92 103.673 35.96 104.1 36.04 104.5L39.36 103.06C39.7067 102.9 39.88 102.62 39.88 102.22C39.88 101.74 39.6933 101.247 39.32 100.74C38.96 100.22 38.5133 99.96 37.98 99.96ZM47.6033 109.18C46.3633 109.18 45.3566 108.947 44.5833 108.48C43.8099 108 43.4233 107.467 43.4233 106.88C43.4233 106.587 43.5099 106.36 43.6833 106.2C43.8699 106.04 44.1166 105.96 44.4233 105.96C44.6899 105.96 44.9099 106.047 45.0833 106.22C45.2699 106.393 45.4166 106.607 45.5233 106.86C45.6299 107.113 45.7499 107.367 45.8833 107.62C46.0299 107.86 46.2433 108.067 46.5233 108.24C46.8166 108.413 47.1766 108.5 47.6033 108.5C48.1499 108.5 48.5899 108.367 48.9233 108.1C49.2699 107.833 49.4433 107.453 49.4433 106.96C49.4433 106.467 49.2433 106.087 48.8433 105.82C48.4433 105.54 47.9566 105.333 47.3833 105.2C46.8233 105.067 46.2566 104.913 45.6833 104.74C45.1099 104.567 44.6233 104.26 44.2233 103.82C43.8233 103.367 43.6233 102.773 43.6233 102.04C43.6233 101.227 43.9899 100.553 44.7233 100.02C45.4566 99.4733 46.3966 99.2 47.5433 99.2C48.7299 99.2 49.6899 99.4467 50.4233 99.94C51.1699 100.42 51.5433 100.967 51.5433 101.58C51.5433 101.833 51.4566 102.04 51.2833 102.2C51.1099 102.36 50.8899 102.44 50.6233 102.44C50.3699 102.44 50.1566 102.353 49.9833 102.18C49.8233 102.007 49.6833 101.8 49.5633 101.56C49.4566 101.307 49.3366 101.06 49.2033 100.82C49.0833 100.567 48.8899 100.353 48.6233 100.18C48.3699 100.007 48.0499 99.92 47.6633 99.92C47.1833 99.92 46.7833 100.067 46.4633 100.36C46.1433 100.653 45.9833 101.02 45.9833 101.46C45.9833 101.953 46.1833 102.34 46.5833 102.62C46.9833 102.9 47.4633 103.113 48.0233 103.26C48.5966 103.393 49.1699 103.547 49.7433 103.72C50.3166 103.893 50.8033 104.2 51.2033 104.64C51.6033 105.08 51.8033 105.667 51.8033 106.4C51.8033 107.2 51.4166 107.867 50.6433 108.4C49.8833 108.92 48.8699 109.18 47.6033 109.18ZM62.9333 99.2C64.1999 99.2 65.2866 99.6467 66.1933 100.54C67.1133 101.42 67.5733 102.587 67.5733 104.04C67.5733 105.533 67.1199 106.767 66.2133 107.74C65.3199 108.713 64.2333 109.2 62.9533 109.2C61.8733 109.2 60.9933 108.847 60.3133 108.14V111.76C60.3133 112.053 60.4466 112.313 60.7133 112.54C60.9933 112.78 61.1333 112.96 61.1333 113.08V113.14C61.1333 113.34 60.9866 113.44 60.6933 113.44H57.6533C57.3599 113.44 57.2133 113.34 57.2133 113.14V113.08C57.2133 112.96 57.3399 112.78 57.5933 112.54C57.8466 112.313 57.9733 112.053 57.9733 111.76V101.96C57.9733 101.68 57.8266 101.433 57.5333 101.22C57.2533 101.007 57.1133 100.833 57.1133 100.7V100.62C57.1133 100.447 57.2333 100.307 57.4733 100.2L59.3133 99.3C59.7533 99.0733 59.9733 99.18 59.9733 99.62L59.9533 100.72C60.2333 100.24 60.6333 99.8667 61.1533 99.6C61.6733 99.3333 62.2666 99.2 62.9333 99.2ZM62.6733 108.44C63.4733 108.44 64.0933 108.12 64.5333 107.48C64.9866 106.84 65.2133 105.94 65.2133 104.78C65.2133 103.34 64.9466 102.18 64.4133 101.3C63.8933 100.407 63.2066 99.96 62.3533 99.96C61.8466 99.96 61.3933 100.147 60.9933 100.52C60.6066 100.88 60.3799 101.34 60.3133 101.9V105.6C60.3133 106.333 60.5533 106.993 61.0333 107.58C61.5133 108.153 62.0599 108.44 62.6733 108.44ZM74.2148 109.2C72.5748 109.2 71.2615 108.7 70.2748 107.7C69.2882 106.7 68.7948 105.5 68.7948 104.1C68.7948 102.7 69.2748 101.533 70.2348 100.6C71.1948 99.6667 72.3682 99.2 73.7548 99.2C75.3015 99.2 76.5682 99.6933 77.5548 100.68C78.5415 101.653 79.0348 102.847 79.0348 104.26C79.0348 105.66 78.5882 106.833 77.6948 107.78C76.8015 108.727 75.6415 109.2 74.2148 109.2ZM74.5148 108.44C75.1548 108.44 75.6748 108.147 76.0748 107.56C76.4748 106.96 76.6748 106.133 76.6748 105.08C76.6748 103.667 76.3682 102.46 75.7548 101.46C75.1548 100.46 74.4015 99.96 73.4948 99.96C72.7748 99.96 72.2015 100.253 71.7748 100.84C71.3615 101.413 71.1548 102.24 71.1548 103.32C71.1548 104.627 71.4682 105.807 72.0948 106.86C72.7348 107.913 73.5415 108.44 74.5148 108.44ZM89.8402 107.34C89.8402 107.633 89.9668 107.9 90.2202 108.14C90.4735 108.38 90.6002 108.553 90.6002 108.66V108.72C90.6002 108.907 90.4868 109 90.2602 109H88.1802C87.9402 109 87.8068 108.873 87.7802 108.62L87.7202 107.92C87.0535 108.773 86.1202 109.2 84.9202 109.2C83.6402 109.2 82.5402 108.74 81.6202 107.82C80.7135 106.9 80.2602 105.687 80.2602 104.18C80.2602 102.727 80.7068 101.533 81.6002 100.6C82.5068 99.6667 83.6268 99.2 84.9602 99.2C86.0002 99.2 86.8735 99.54 87.5802 100.22V96.46C87.5802 96.2067 87.5002 96 87.3402 95.84C87.1935 95.68 87.0402 95.5533 86.8802 95.46C86.7335 95.3533 86.6602 95.24 86.6602 95.12V95.08C86.6602 94.9067 86.7802 94.7733 87.0202 94.68L89.1402 94C89.6068 93.84 89.8402 93.96 89.8402 94.36V107.34ZM85.4602 108.44C86.0068 108.44 86.4935 108.213 86.9202 107.76C87.3602 107.307 87.5802 106.673 87.5802 105.86V102.66C87.5802 101.993 87.3268 101.38 86.8202 100.82C86.3135 100.247 85.7202 99.96 85.0402 99.96C84.2935 99.96 83.6935 100.267 83.2402 100.88C82.7868 101.48 82.5535 102.307 82.5402 103.36C82.5135 104.76 82.7668 105.953 83.3002 106.94C83.8468 107.927 84.5668 108.427 85.4602 108.44ZM96.7441 109.2C95.3041 109.2 94.0841 108.713 93.0841 107.74C92.0974 106.753 91.6041 105.56 91.6041 104.16C91.6041 102.68 92.0907 101.487 93.0641 100.58C94.0374 99.6733 95.2307 99.2133 96.6441 99.2C97.7374 99.1867 98.6774 99.4533 99.4641 100C100.264 100.533 100.664 101.147 100.664 101.84C100.664 102.093 100.577 102.307 100.404 102.48C100.244 102.64 99.9907 102.713 99.6441 102.7C99.3241 102.687 99.0374 102.533 98.7841 102.24C98.5307 101.947 98.3241 101.633 98.1641 101.3C98.0041 100.967 97.7574 100.66 97.4241 100.38C97.1041 100.1 96.7174 99.96 96.2641 99.96C95.5841 99.96 95.0307 100.253 94.6041 100.84C94.1774 101.427 93.9641 102.16 93.9641 103.04C93.9641 104.4 94.2907 105.493 94.9441 106.32C95.5974 107.133 96.4574 107.54 97.5241 107.54C98.6841 107.54 99.5441 106.993 100.104 105.9C100.211 105.74 100.351 105.68 100.524 105.72C100.697 105.76 100.771 105.88 100.744 106.08C100.637 106.933 100.231 107.667 99.5241 108.28C98.8307 108.893 97.9041 109.2 96.7441 109.2ZM110.542 107.2C110.569 107.493 110.642 107.727 110.762 107.9C110.896 108.06 111.022 108.16 111.142 108.2C111.276 108.24 111.389 108.293 111.482 108.36C111.589 108.427 111.642 108.513 111.642 108.62C111.642 108.953 111.102 109.12 110.022 109.12C109.489 109.12 109.096 109.04 108.842 108.88C108.602 108.707 108.462 108.387 108.422 107.92C107.889 108.773 106.962 109.2 105.642 109.2C104.522 109.2 103.616 108.94 102.922 108.42C102.242 107.887 101.902 107.14 101.902 106.18C101.889 105.233 102.229 104.5 102.922 103.98C103.616 103.447 104.489 103.18 105.542 103.18C106.502 103.18 107.276 103.407 107.862 103.86L107.822 103.46C107.702 102.233 107.489 101.34 107.182 100.78C106.876 100.22 106.389 99.94 105.722 99.94C105.309 99.94 104.962 100.067 104.682 100.32C104.416 100.573 104.229 100.853 104.122 101.16C104.029 101.453 103.889 101.727 103.702 101.98C103.516 102.233 103.282 102.36 103.002 102.36C102.709 102.36 102.469 102.28 102.282 102.12C102.109 101.947 102.022 101.72 102.022 101.44C102.022 100.8 102.369 100.267 103.062 99.84C103.769 99.4133 104.656 99.2 105.722 99.2C106.976 99.2 107.989 99.5733 108.762 100.32C109.536 101.053 109.996 102.067 110.142 103.36L110.542 107.2ZM106.302 108.44C106.849 108.44 107.289 108.24 107.622 107.84C107.969 107.44 108.129 106.967 108.102 106.42L108.042 105.8C108.002 105.227 107.809 104.773 107.462 104.44C107.116 104.107 106.676 103.94 106.142 103.94C105.582 103.94 105.129 104.12 104.782 104.48C104.436 104.827 104.262 105.3 104.262 105.9C104.262 106.607 104.449 107.207 104.822 107.7C105.209 108.193 105.702 108.44 106.302 108.44ZM116.412 109.18C115.172 109.18 114.165 108.947 113.392 108.48C112.619 108 112.232 107.467 112.232 106.88C112.232 106.587 112.319 106.36 112.492 106.2C112.679 106.04 112.925 105.96 113.232 105.96C113.499 105.96 113.719 106.047 113.892 106.22C114.079 106.393 114.225 106.607 114.332 106.86C114.439 107.113 114.559 107.367 114.692 107.62C114.839 107.86 115.052 108.067 115.332 108.24C115.625 108.413 115.985 108.5 116.412 108.5C116.959 108.5 117.399 108.367 117.732 108.1C118.079 107.833 118.252 107.453 118.252 106.96C118.252 106.467 118.052 106.087 117.652 105.82C117.252 105.54 116.765 105.333 116.192 105.2C115.632 105.067 115.065 104.913 114.492 104.74C113.919 104.567 113.432 104.26 113.032 103.82C112.632 103.367 112.432 102.773 112.432 102.04C112.432 101.227 112.799 100.553 113.532 100.02C114.265 99.4733 115.205 99.2 116.352 99.2C117.539 99.2 118.499 99.4467 119.232 99.94C119.979 100.42 120.352 100.967 120.352 101.58C120.352 101.833 120.265 102.04 120.092 102.2C119.919 102.36 119.699 102.44 119.432 102.44C119.179 102.44 118.965 102.353 118.792 102.18C118.632 102.007 118.492 101.8 118.372 101.56C118.265 101.307 118.145 101.06 118.012 100.82C117.892 100.567 117.699 100.353 117.432 100.18C117.179 100.007 116.859 99.92 116.472 99.92C115.992 99.92 115.592 100.067 115.272 100.36C114.952 100.653 114.792 101.02 114.792 101.46C114.792 101.953 114.992 102.34 115.392 102.62C115.792 102.9 116.272 103.113 116.832 103.26C117.405 103.393 117.979 103.547 118.552 103.72C119.125 103.893 119.612 104.2 120.012 104.64C120.412 105.08 120.612 105.667 120.612 106.4C120.612 107.2 120.225 107.867 119.452 108.4C118.692 108.92 117.679 109.18 116.412 109.18ZM125.506 109.2C124.64 109.2 123.953 108.927 123.446 108.38C122.953 107.82 122.706 107.013 122.706 105.96V100.38H121.566C121.34 100.38 121.226 100.267 121.226 100.04V99.76C121.226 99.52 121.34 99.4 121.566 99.4H122.186C122.693 99.4 123.1 99.2267 123.406 98.88C123.726 98.5333 123.926 98.06 124.006 97.46C124.046 97.1667 124.18 97.02 124.406 97.02H124.706C124.96 97.02 125.086 97.1667 125.086 97.46L125.106 99.4H127.626C127.733 99.4 127.82 99.4333 127.886 99.5C127.953 99.5667 127.986 99.6533 127.986 99.76V100.04C127.986 100.267 127.866 100.38 127.626 100.38H125.106V105.98C125.106 106.447 125.213 106.813 125.426 107.08C125.64 107.333 125.913 107.46 126.246 107.46C127.046 107.46 127.52 107.113 127.666 106.42C127.72 106.313 127.8 106.247 127.906 106.22C128.013 106.193 128.106 106.207 128.186 106.26C128.28 106.313 128.326 106.4 128.326 106.52C128.326 107.24 128.066 107.867 127.546 108.4C127.04 108.933 126.36 109.2 125.506 109.2ZM133.248 109.18C132.008 109.18 131.001 108.947 130.228 108.48C129.454 108 129.068 107.467 129.068 106.88C129.068 106.587 129.154 106.36 129.328 106.2C129.514 106.04 129.761 105.96 130.068 105.96C130.334 105.96 130.554 106.047 130.728 106.22C130.914 106.393 131.061 106.607 131.168 106.86C131.274 107.113 131.394 107.367 131.528 107.62C131.674 107.86 131.888 108.067 132.168 108.24C132.461 108.413 132.821 108.5 133.248 108.5C133.794 108.5 134.234 108.367 134.568 108.1C134.914 107.833 135.088 107.453 135.088 106.96C135.088 106.467 134.888 106.087 134.488 105.82C134.088 105.54 133.601 105.333 133.028 105.2C132.468 105.067 131.901 104.913 131.328 104.74C130.754 104.567 130.268 104.26 129.868 103.82C129.468 103.367 129.268 102.773 129.268 102.04C129.268 101.227 129.634 100.553 130.368 100.02C131.101 99.4733 132.041 99.2 133.188 99.2C134.374 99.2 135.334 99.4467 136.068 99.94C136.814 100.42 137.188 100.967 137.188 101.58C137.188 101.833 137.101 102.04 136.928 102.2C136.754 102.36 136.534 102.44 136.268 102.44C136.014 102.44 135.801 102.353 135.628 102.18C135.468 102.007 135.328 101.8 135.208 101.56C135.101 101.307 134.981 101.06 134.848 100.82C134.728 100.567 134.534 100.353 134.268 100.18C134.014 100.007 133.694 99.92 133.308 99.92C132.828 99.92 132.428 100.067 132.108 100.36C131.788 100.653 131.628 101.02 131.628 101.46C131.628 101.953 131.828 102.34 132.228 102.62C132.628 102.9 133.108 103.113 133.668 103.26C134.241 103.393 134.814 103.547 135.388 103.72C135.961 103.893 136.448 104.2 136.848 104.64C137.248 105.08 137.448 105.667 137.448 106.4C137.448 107.2 137.061 107.867 136.288 108.4C135.528 108.92 134.514 109.18 133.248 109.18Z" fill="black"/>
<path d="M33.5625 48.125H50.4375V48.5938H33.5625V48.125Z" fill="#5D822B"/>
<path d="M48.5625 46.4844V53.375C48.5625 58.2969 45.4219 60.3594 42 60.3594C38.5781 60.3594 35.4375 58.2969 35.4375 53.375V46.4844H34.5V53.2812C34.5 58.9062 38.1094 61.25 42 61.25C45.8906 61.25 49.5 58.9062 49.5 53.2812V46.4844H48.5625ZM41.0625 61.25H42.9375V63.125H41.0625V61.25Z" fill="#94989B"/>
<path d="M36.8438 46.7188V52.8125C36.8438 55.7187 39.0938 57.9688 42 57.9688C44.9062 57.9688 47.1562 55.7187 47.1562 52.8125V46.7188H36.8438ZM40.5938 59.375H43.4062V61.7188H40.5938V59.375Z" fill="#5D822B"/>
<path d="M42 35.9375C39.0938 35.9375 36.8438 37.7188 36.8438 40.625V46.7188H47.1562V40.625C47.1562 37.7188 44.9062 35.9375 42 35.9375Z" fill="#94989B"/>
<path d="M42 36.3125C39.3281 36.3125 37.2656 38.0469 37.2656 40.8594V46.7187H46.7344V40.8594C46.7344 38.0469 44.6719 36.3125 42 36.3125Z" fill="#D0D0D0"/>
<path d="M48.5625 64.0625H35.4375C35.4375 64.0625 38.3906 62.6562 42 62.6562C45.6094 62.6562 48.5625 64.0625 48.5625 64.0625Z" fill="#5D822B"/>
<path d="M36.375 46.7188H47.625V50H36.375V46.7188Z" fill="#B0B8B8"/>
<path d="M35.9062 46.4844H48.0938V47.4219H35.9062V46.4844ZM35.9062 47.8906H48.0938V48.8281H35.9062V47.8906ZM35.9062 49.2969H48.0938V50.2344H35.9062V49.2969ZM33.0938 46.9531H34.0312V49.7656H33.0938V46.9531ZM49.9688 46.9531H50.9062V49.7656H49.9688V46.9531Z" fill="#5D822B"/>
<path d="M38.8594 45.5469C38.8594 45.875 38.5781 46.1094 38.25 46.1094C37.9219 46.1094 37.6406 45.875 37.6406 45.5938C37.6406 45.3125 37.9219 45.0781 38.25 45.0313C38.5781 45.0313 38.8594 45.2656 38.8594 45.5469ZM41.3906 45.5469C41.3906 45.875 41.1094 46.1562 40.7812 46.1562C40.4531 46.1562 40.1719 45.875 40.125 45.5469C40.125 45.2188 40.4062 44.9375 40.7344 44.9375C41.0625 44.9375 41.3906 45.1719 41.3906 45.5469ZM43.875 45.5469C43.875 45.875 43.5937 46.1562 43.2187 46.1562C42.8906 46.1562 42.6094 45.875 42.6094 45.5469C42.6094 45.2188 42.8906 44.9375 43.2656 44.9375C43.5938 44.9375 43.875 45.2188 43.875 45.5469ZM46.4063 45.5938C46.4063 45.875 46.125 46.1094 45.7969 46.1094C45.4687 46.1094 45.1875 45.875 45.1875 45.5469C45.1875 45.2188 45.4687 44.9844 45.7969 45.0313C46.125 45.0781 46.4063 45.3125 46.4063 45.5938ZM38.8125 42.5938C38.8125 42.9219 38.5312 43.2031 38.2031 43.25C37.875 43.2969 37.5938 43.1562 37.5938 42.875C37.5938 42.5937 37.875 42.2656 38.2031 42.1719C38.5312 42.0781 38.8125 42.2656 38.8125 42.5938ZM41.3438 42.3125C41.3438 42.6406 41.0625 42.9219 40.6875 42.9687C40.3125 42.9687 40.0312 42.7344 40.0312 42.4062C40.0312 42.0781 40.3125 41.7969 40.6875 41.75C41.0625 41.7031 41.3438 41.9375 41.3438 42.3125ZM43.9219 42.4062C43.9219 42.7344 43.6406 42.9687 43.2656 42.9687C42.8906 42.9687 42.6094 42.6875 42.6094 42.3125C42.6094 41.9844 42.8906 41.7031 43.2656 41.75C43.6406 41.75 43.9219 42.0781 43.9219 42.4062ZM46.4063 42.875C46.4063 43.1562 46.125 43.3438 45.7969 43.25C45.4687 43.2031 45.1875 42.875 45.1875 42.5938C45.1875 42.2656 45.4687 42.0781 45.7969 42.1719C46.125 42.2656 46.4063 42.5937 46.4063 42.875ZM40.0781 43.9531C40.0781 44.2813 39.7969 44.5625 39.4688 44.5625C39.1406 44.5625 38.8594 44.375 38.8125 44.0469C38.7656 43.7187 39.0937 43.4375 39.4219 43.3906C39.7969 43.3906 40.0781 43.625 40.0781 43.9531ZM42.6563 43.9062C42.6563 44.2344 42.375 44.5156 42 44.5156C41.6719 44.5156 41.3438 44.2344 41.3438 43.9062C41.3438 43.5781 41.625 43.2969 42 43.2969C42.375 43.2969 42.6563 43.5781 42.6563 43.9062ZM45.1406 44.0937C45.1406 44.4219 44.8594 44.6094 44.4844 44.6094C44.1562 44.6094 43.875 44.3281 43.875 44C43.875 43.6719 44.1563 43.4375 44.5313 43.4844C44.9063 43.4844 45.1875 43.7656 45.1406 44.0937ZM40.0312 40.8125C40.0312 41.1406 39.75 41.4219 39.4219 41.5156C39.0937 41.5625 38.8125 41.375 38.8125 41.0937C38.8125 40.7656 39.0937 40.4375 39.4219 40.3437C39.75 40.25 40.0312 40.4844 40.0312 40.8125ZM42.6563 40.6719C42.6563 41 42.375 41.2812 42 41.2812C41.625 41.2812 41.3438 41.0469 41.3438 40.6719C41.3438 40.3438 41.625 40.0625 42 40.0625C42.375 40.0625 42.6563 40.3438 42.6563 40.6719ZM45.1875 41.0937C45.1875 41.4219 44.9063 41.5625 44.5781 41.5156C44.25 41.4687 43.9688 41.1406 43.9688 40.8125C43.9688 40.4844 44.25 40.25 44.625 40.3437C44.9531 40.4375 45.2344 40.7656 45.1875 41.0937ZM38.7656 39.5938C38.7656 39.9219 38.4844 40.25 38.1562 40.3906C37.8281 40.5312 37.5938 40.4375 37.5938 40.1094C37.5938 39.8281 37.8281 39.4531 38.1562 39.2656C38.4844 39.125 38.7656 39.2656 38.7656 39.5938ZM41.3438 39.0781C41.3438 39.4062 41.0625 39.6875 40.6875 39.7344C40.3125 39.7813 40.0312 39.5469 40.0312 39.2656C40.0312 38.9375 40.3125 38.6094 40.6875 38.5625C41.0156 38.4687 41.3438 38.75 41.3438 39.0781ZM43.9688 39.2187C43.9688 39.5469 43.6875 39.7344 43.3125 39.6875C42.9375 39.6875 42.6563 39.4062 42.6563 39.0781C42.6563 38.75 42.9375 38.4687 43.3125 38.5625C43.6875 38.5625 43.9688 38.8906 43.9688 39.2187ZM46.4063 40.1094C46.4063 40.3906 46.1719 40.4844 45.8438 40.3906C45.5156 40.25 45.2344 39.9219 45.2344 39.5938C45.2344 39.2656 45.5156 39.125 45.8438 39.3125C46.125 39.4531 46.4063 39.8281 46.4063 40.1094ZM39.9844 37.6719C39.9844 38 39.7031 38.3281 39.375 38.4219C39.0469 38.5156 38.7656 38.375 38.7656 38.0937C38.7656 37.7656 39.0469 37.3906 39.375 37.2969C39.7031 37.1563 39.9844 37.3437 39.9844 37.6719ZM42.6563 37.4375C42.6563 37.7656 42.375 38 42 38C41.625 38 41.3438 37.7656 41.3438 37.4375C41.3438 37.1094 41.625 36.7812 42 36.7812C42.375 36.8281 42.6563 37.1094 42.6563 37.4375ZM45.2344 38.0937C45.2344 38.4219 44.9531 38.5156 44.625 38.4219C44.2969 38.3281 43.9687 38 44.0156 37.6719C44.0156 37.3437 44.2969 37.1563 44.6719 37.2969C45 37.3906 45.2344 37.7656 45.2344 38.0937Z" fill="#94989B"/>
</g>
<defs>
<clipPath id="clip0_3356_1446">
<rect width="240" height="177" fill="white"/>
</clipPath>
</defs>
</svg>
