<svg width="240" height="177" viewBox="0 0 240 177" fill="none" xmlns="http://www.w3.org/2000/svg">
<g clip-path="url(#clip0_3356_1283)">
<path d="M228 0H12C5.37258 0 0 5.37258 0 12V165C0 171.627 5.37258 177 12 177H228C234.627 177 240 171.627 240 165V12C240 5.37258 234.627 0 228 0Z" fill="#FFEFB8"/>
<path d="M42 75C55.2548 75 66 63.8071 66 50C66 36.1929 55.2548 25 42 25C28.7452 25 18 36.1929 18 50C18 63.8071 28.7452 75 42 75Z" fill="white"/>
<path d="M19.5 109C19.2067 109 19.06 108.907 19.06 108.72V108.66C19.06 108.54 19.1867 108.367 19.44 108.14C19.6933 107.9 19.82 107.633 19.82 107.34V96.46C19.82 96.1667 19.6933 95.9067 19.44 95.68C19.1867 95.44 19.06 95.26 19.06 95.14V95.08C19.06 94.8933 19.2067 94.8 19.5 94.8H23.9C26.3533 94.8 28.3667 95.4733 29.94 96.82C31.5267 98.1533 32.32 99.8267 32.32 101.84C32.32 104.013 31.6133 105.753 30.2 107.06C28.8 108.353 27 109 24.8 109H19.5ZM23.4 107.98H24.66C26.18 107.98 27.42 107.507 28.38 106.56C29.3533 105.613 29.84 104.34 29.84 102.74C29.84 100.753 29.2267 99.1067 28 97.8C26.7733 96.48 25.2533 95.82 23.44 95.82H22.88C22.4267 95.82 22.2 96.0667 22.2 96.56V106.56C22.2 107.013 22.3067 107.367 22.52 107.62C22.7333 107.86 23.0267 107.98 23.4 107.98ZM41.76 106.06C41.8667 105.913 42 105.86 42.16 105.9C42.3333 105.94 42.4133 106.06 42.4 106.26C42.2933 106.967 41.88 107.633 41.16 108.26C40.44 108.887 39.5 109.2 38.34 109.2C36.98 109.2 35.8467 108.733 34.94 107.8C34.0467 106.867 33.6 105.64 33.6 104.12C33.6 102.707 34.06 101.533 34.98 100.6C35.9133 99.6667 37.0467 99.2 38.38 99.2C39.58 99.2 40.5 99.5 41.14 100.1C41.7933 100.687 42.12 101.367 42.12 102.14C42.12 102.833 41.78 103.3 41.1 103.54L36.26 105.32C36.5133 106.013 36.8933 106.553 37.4 106.94C37.9067 107.327 38.5067 107.52 39.2 107.52C39.8 107.52 40.32 107.387 40.76 107.12C41.2133 106.84 41.5467 106.487 41.76 106.06ZM37.98 99.96C37.3533 99.96 36.8533 100.26 36.48 100.86C36.1067 101.46 35.92 102.247 35.92 103.22C35.92 103.673 35.96 104.1 36.04 104.5L39.36 103.06C39.7067 102.9 39.88 102.62 39.88 102.22C39.88 101.74 39.6933 101.247 39.32 100.74C38.96 100.22 38.5133 99.96 37.98 99.96ZM47.6033 109.18C46.3633 109.18 45.3566 108.947 44.5833 108.48C43.8099 108 43.4233 107.467 43.4233 106.88C43.4233 106.587 43.5099 106.36 43.6833 106.2C43.8699 106.04 44.1166 105.96 44.4233 105.96C44.6899 105.96 44.9099 106.047 45.0833 106.22C45.2699 106.393 45.4166 106.607 45.5233 106.86C45.6299 107.113 45.7499 107.367 45.8833 107.62C46.0299 107.86 46.2433 108.067 46.5233 108.24C46.8166 108.413 47.1766 108.5 47.6033 108.5C48.1499 108.5 48.5899 108.367 48.9233 108.1C49.2699 107.833 49.4433 107.453 49.4433 106.96C49.4433 106.467 49.2433 106.087 48.8433 105.82C48.4433 105.54 47.9566 105.333 47.3833 105.2C46.8233 105.067 46.2566 104.913 45.6833 104.74C45.1099 104.567 44.6233 104.26 44.2233 103.82C43.8233 103.367 43.6233 102.773 43.6233 102.04C43.6233 101.227 43.9899 100.553 44.7233 100.02C45.4566 99.4733 46.3966 99.2 47.5433 99.2C48.7299 99.2 49.6899 99.4467 50.4233 99.94C51.1699 100.42 51.5433 100.967 51.5433 101.58C51.5433 101.833 51.4566 102.04 51.2833 102.2C51.1099 102.36 50.8899 102.44 50.6233 102.44C50.3699 102.44 50.1566 102.353 49.9833 102.18C49.8233 102.007 49.6833 101.8 49.5633 101.56C49.4566 101.307 49.3366 101.06 49.2033 100.82C49.0833 100.567 48.8899 100.353 48.6233 100.18C48.3699 100.007 48.0499 99.92 47.6633 99.92C47.1833 99.92 46.7833 100.067 46.4633 100.36C46.1433 100.653 45.9833 101.02 45.9833 101.46C45.9833 101.953 46.1833 102.34 46.5833 102.62C46.9833 102.9 47.4633 103.113 48.0233 103.26C48.5966 103.393 49.1699 103.547 49.7433 103.72C50.3166 103.893 50.8033 104.2 51.2033 104.64C51.6033 105.08 51.8033 105.667 51.8033 106.4C51.8033 107.2 51.4166 107.867 50.6433 108.4C49.8833 108.92 48.8699 109.18 47.6033 109.18ZM73.4133 107.3C73.4666 107.593 73.6133 107.86 73.8533 108.1C74.1066 108.34 74.2333 108.527 74.2333 108.66V108.72C74.2333 108.907 74.0866 109 73.7933 109H70.7733C70.4799 109 70.3333 108.907 70.3333 108.72V108.66C70.3333 108.553 70.4599 108.38 70.7133 108.14C70.9799 107.887 71.0799 107.607 71.0133 107.3L69.4333 98.32L65.7333 108.5C65.6133 108.82 65.4199 108.98 65.1533 108.98C64.8599 108.98 64.6466 108.827 64.5133 108.52L60.6333 98.04L59.1333 107.3C59.0799 107.607 59.1866 107.887 59.4533 108.14C59.7333 108.38 59.8733 108.553 59.8733 108.66V108.72C59.8733 108.907 59.7333 109 59.4533 109H57.4133C57.1333 109 56.9933 108.907 56.9933 108.72V108.66C56.9933 108.54 57.1133 108.36 57.3533 108.12C57.5933 107.867 57.7399 107.593 57.7933 107.3L59.5933 96.5C59.6333 96.2067 59.5266 95.94 59.2733 95.7C59.0199 95.46 58.8933 95.28 58.8933 95.16V95.1C58.8933 94.9 59.0199 94.8 59.2733 94.8H61.0333C61.4733 94.8 61.7666 94.9933 61.9133 95.38L65.4933 105.74L69.0933 95.38C69.2399 94.9933 69.5133 94.8 69.9133 94.8H71.7733C72.0133 94.8 72.1333 94.8933 72.1333 95.08V95.14C72.1333 95.26 72.0599 95.3867 71.9133 95.52C71.7666 95.64 71.6333 95.7867 71.5133 95.96C71.4066 96.1333 71.3733 96.3533 71.4133 96.62L73.4133 107.3ZM83.0881 106.06C83.1948 105.913 83.3281 105.86 83.4881 105.9C83.6615 105.94 83.7415 106.06 83.7281 106.26C83.6215 106.967 83.2081 107.633 82.4881 108.26C81.7681 108.887 80.8281 109.2 79.6681 109.2C78.3081 109.2 77.1748 108.733 76.2681 107.8C75.3748 106.867 74.9281 105.64 74.9281 104.12C74.9281 102.707 75.3881 101.533 76.3081 100.6C77.2415 99.6667 78.3748 99.2 79.7081 99.2C80.9081 99.2 81.8281 99.5 82.4681 100.1C83.1215 100.687 83.4481 101.367 83.4481 102.14C83.4481 102.833 83.1081 103.3 82.4281 103.54L77.5881 105.32C77.8415 106.013 78.2215 106.553 78.7281 106.94C79.2348 107.327 79.8348 107.52 80.5281 107.52C81.1281 107.52 81.6481 107.387 82.0881 107.12C82.5415 106.84 82.8748 106.487 83.0881 106.06ZM79.3081 99.96C78.6815 99.96 78.1815 100.26 77.8081 100.86C77.4348 101.46 77.2481 102.247 77.2481 103.22C77.2481 103.673 77.2881 104.1 77.3681 104.5L80.6881 103.06C81.0348 102.9 81.2081 102.62 81.2081 102.22C81.2081 101.74 81.0215 101.247 80.6481 100.74C80.2881 100.22 79.8415 99.96 79.3081 99.96ZM92.9514 106.06C93.0581 105.913 93.1914 105.86 93.3514 105.9C93.5247 105.94 93.6047 106.06 93.5914 106.26C93.4847 106.967 93.0714 107.633 92.3514 108.26C91.6314 108.887 90.6914 109.2 89.5314 109.2C88.1714 109.2 87.0381 108.733 86.1314 107.8C85.2381 106.867 84.7914 105.64 84.7914 104.12C84.7914 102.707 85.2514 101.533 86.1714 100.6C87.1047 99.6667 88.2381 99.2 89.5714 99.2C90.7714 99.2 91.6914 99.5 92.3314 100.1C92.9847 100.687 93.3114 101.367 93.3114 102.14C93.3114 102.833 92.9714 103.3 92.2914 103.54L87.4514 105.32C87.7047 106.013 88.0847 106.553 88.5914 106.94C89.0981 107.327 89.6981 107.52 90.3914 107.52C90.9914 107.52 91.5114 107.387 91.9514 107.12C92.4047 106.84 92.7381 106.487 92.9514 106.06ZM89.1714 99.96C88.5447 99.96 88.0447 100.26 87.6714 100.86C87.2981 101.46 87.1114 102.247 87.1114 103.22C87.1114 103.673 87.1514 104.1 87.2314 104.5L90.5514 103.06C90.8981 102.9 91.0714 102.62 91.0714 102.22C91.0714 101.74 90.8847 101.247 90.5114 100.74C90.1514 100.22 89.7047 99.96 89.1714 99.96ZM98.4947 109.2C97.628 109.2 96.9414 108.927 96.4347 108.38C95.9414 107.82 95.6947 107.013 95.6947 105.96V100.38H94.5547C94.328 100.38 94.2147 100.267 94.2147 100.04V99.76C94.2147 99.52 94.328 99.4 94.5547 99.4H95.1747C95.6814 99.4 96.088 99.2267 96.3947 98.88C96.7147 98.5333 96.9147 98.06 96.9947 97.46C97.0347 97.1667 97.168 97.02 97.3947 97.02H97.6947C97.948 97.02 98.0747 97.1667 98.0747 97.46L98.0947 99.4H100.615C100.721 99.4 100.808 99.4333 100.875 99.5C100.941 99.5667 100.975 99.6533 100.975 99.76V100.04C100.975 100.267 100.855 100.38 100.615 100.38H98.0947V105.98C98.0947 106.447 98.2014 106.813 98.4147 107.08C98.628 107.333 98.9014 107.46 99.2347 107.46C100.035 107.46 100.508 107.113 100.655 106.42C100.708 106.313 100.788 106.247 100.895 106.22C101.001 106.193 101.095 106.207 101.175 106.26C101.268 106.313 101.315 106.4 101.315 106.52C101.315 107.24 101.055 107.867 100.535 108.4C100.028 108.933 99.348 109.2 98.4947 109.2ZM111.556 107.12C111.556 107.467 111.609 107.727 111.716 107.9C111.823 108.073 111.936 108.173 112.056 108.2C112.189 108.213 112.309 108.253 112.416 108.32C112.523 108.373 112.576 108.473 112.576 108.62C112.576 108.953 112.076 109.12 111.076 109.12C110.516 109.12 110.103 109.007 109.836 108.78C109.569 108.553 109.443 108.173 109.456 107.64C108.869 108.68 107.869 109.2 106.456 109.2C105.336 109.2 104.436 108.827 103.756 108.08C103.076 107.333 102.736 106.253 102.736 104.84V101.38C102.736 101.073 102.609 100.8 102.356 100.56C102.103 100.307 101.976 100.133 101.976 100.04V99.98C101.976 99.78 102.096 99.66 102.336 99.62L104.436 99.28C104.889 99.2133 105.116 99.3133 105.116 99.58L105.076 105.06C105.076 107.18 105.743 108.24 107.076 108.24C107.689 108.24 108.196 107.993 108.596 107.5C109.009 106.993 109.216 106.34 109.216 105.54V101.38C109.216 101.073 109.083 100.8 108.816 100.56C108.563 100.307 108.436 100.133 108.436 100.04V99.98C108.436 99.78 108.549 99.66 108.776 99.62L110.916 99.28C111.343 99.2133 111.556 99.3133 111.556 99.58V107.12ZM119.32 99.2C120.587 99.2 121.673 99.6467 122.58 100.54C123.5 101.42 123.96 102.587 123.96 104.04C123.96 105.533 123.507 106.767 122.6 107.74C121.707 108.713 120.62 109.2 119.34 109.2C118.26 109.2 117.38 108.847 116.7 108.14V111.76C116.7 112.053 116.833 112.313 117.1 112.54C117.38 112.78 117.52 112.96 117.52 113.08V113.14C117.52 113.34 117.373 113.44 117.08 113.44H114.04C113.747 113.44 113.6 113.34 113.6 113.14V113.08C113.6 112.96 113.727 112.78 113.98 112.54C114.233 112.313 114.36 112.053 114.36 111.76V101.96C114.36 101.68 114.213 101.433 113.92 101.22C113.64 101.007 113.5 100.833 113.5 100.7V100.62C113.5 100.447 113.62 100.307 113.86 100.2L115.7 99.3C116.14 99.0733 116.36 99.18 116.36 99.62L116.34 100.72C116.62 100.24 117.02 99.8667 117.54 99.6C118.06 99.3333 118.653 99.2 119.32 99.2ZM119.06 108.44C119.86 108.44 120.48 108.12 120.92 107.48C121.373 106.84 121.6 105.94 121.6 104.78C121.6 103.34 121.333 102.18 120.8 101.3C120.28 100.407 119.593 99.96 118.74 99.96C118.233 99.96 117.78 100.147 117.38 100.52C116.993 100.88 116.767 101.34 116.7 101.9V105.6C116.7 106.333 116.94 106.993 117.42 107.58C117.9 108.153 118.447 108.44 119.06 108.44ZM129.342 109.18C128.102 109.18 127.095 108.947 126.322 108.48C125.548 108 125.162 107.467 125.162 106.88C125.162 106.587 125.248 106.36 125.422 106.2C125.608 106.04 125.855 105.96 126.162 105.96C126.428 105.96 126.648 106.047 126.822 106.22C127.008 106.393 127.155 106.607 127.262 106.86C127.368 107.113 127.488 107.367 127.622 107.62C127.768 107.86 127.982 108.067 128.262 108.24C128.555 108.413 128.915 108.5 129.342 108.5C129.888 108.5 130.328 108.367 130.662 108.1C131.008 107.833 131.182 107.453 131.182 106.96C131.182 106.467 130.982 106.087 130.582 105.82C130.182 105.54 129.695 105.333 129.122 105.2C128.562 105.067 127.995 104.913 127.422 104.74C126.848 104.567 126.362 104.26 125.962 103.82C125.562 103.367 125.362 102.773 125.362 102.04C125.362 101.227 125.728 100.553 126.462 100.02C127.195 99.4733 128.135 99.2 129.282 99.2C130.468 99.2 131.428 99.4467 132.162 99.94C132.908 100.42 133.282 100.967 133.282 101.58C133.282 101.833 133.195 102.04 133.022 102.2C132.848 102.36 132.628 102.44 132.362 102.44C132.108 102.44 131.895 102.353 131.722 102.18C131.562 102.007 131.422 101.8 131.302 101.56C131.195 101.307 131.075 101.06 130.942 100.82C130.822 100.567 130.628 100.353 130.362 100.18C130.108 100.007 129.788 99.92 129.402 99.92C128.922 99.92 128.522 100.067 128.202 100.36C127.882 100.653 127.722 101.02 127.722 101.46C127.722 101.953 127.922 102.34 128.322 102.62C128.722 102.9 129.202 103.113 129.762 103.26C130.335 103.393 130.908 103.547 131.482 103.72C132.055 103.893 132.542 104.2 132.942 104.64C133.342 105.08 133.542 105.667 133.542 106.4C133.542 107.2 133.155 107.867 132.382 108.4C131.622 108.92 130.608 109.18 129.342 109.18Z" fill="black"/>
<path d="M44.8119 36.8624L43.7596 39.5225C43.6729 39.7405 43.3518 39.703 43.3213 39.4686L42.9416 36.6327C42.9229 36.485 43.0471 36.3561 43.1947 36.3749L44.6268 36.5506C44.7744 36.5694 44.8658 36.7241 44.8119 36.8624ZM47.6057 39.6819L44.8893 40.5749C44.6666 40.6475 44.4908 40.3756 44.6502 40.2022L46.5861 38.0975C46.6098 38.0717 46.639 38.0517 46.6716 38.0389C46.7042 38.0262 46.7392 38.0211 46.7741 38.0241C46.809 38.027 46.8427 38.0379 46.8727 38.0559C46.9027 38.0739 46.9281 38.0986 46.9471 38.128L47.7276 39.3397C47.8072 39.4663 47.7486 39.635 47.6057 39.6819ZM41.0432 37.2678L42.3369 39.8178C42.4424 40.0288 42.201 40.2421 42.0065 40.1108L39.6322 38.5171C39.6032 38.4976 39.5791 38.4717 39.5617 38.4414C39.5442 38.4111 39.534 38.3772 39.5317 38.3424C39.5295 38.3075 39.5352 38.2726 39.5486 38.2403C39.562 38.208 39.5826 38.1792 39.6088 38.1561L40.6893 37.1999C40.7994 37.0991 40.9752 37.1342 41.0432 37.2678Z" fill="#FF6F00"/>
<path d="M32.634 44.2078L31.8723 44.168L30.902 55.357C30.7145 57.232 33.3629 58.2211 35.9153 58.4789L37.3028 44.6766L32.634 44.2078Z" fill="#E0E0E0"/>
<path d="M41.966 45.1484L42.7207 45.2609L41.4457 56.4195C41.2582 58.2945 38.4645 58.7375 35.9121 58.482L37.2996 44.6797L41.966 45.1484Z" fill="#E0E0E0"/>
<path d="M37.4305 43.4112C36.0735 43.2752 34.7891 43.3033 33.8141 43.4885C32.9751 43.6479 32.4594 43.9174 32.429 44.2057C32.4008 44.494 32.8532 44.8596 33.643 45.1854C34.5618 45.5627 35.8157 45.8463 37.1727 45.9822C38.5298 46.1182 39.8141 46.0901 40.7891 45.9049C41.6282 45.7455 42.1438 45.476 42.1743 45.1877C42.2024 44.8994 41.7501 44.5338 40.9602 44.208C40.0391 43.8307 38.7852 43.5471 37.4305 43.4112Z" fill="#FAFAFA"/>
<path d="M32.5313 48.5195L31.957 54.7398C31.9641 55.0938 32.2148 55.457 32.5875 55.6773C33.2531 56.0688 34.5891 56.5211 36.1031 56.6734C37.5492 56.8188 38.8078 56.6547 39.5508 56.425C40.0219 56.2797 40.425 55.9328 40.5141 55.607L41.2078 49.3937" fill="#FBCC2F"/>
<path d="M41.2111 49.39C41.2705 48.7988 39.3757 48.1243 36.9789 47.8834C34.582 47.6424 32.5908 47.9263 32.5314 48.5175C32.472 49.1087 34.3668 49.7832 36.7637 50.0241C39.1605 50.2651 41.1517 49.9811 41.2111 49.39Z" fill="#E5A315"/>
<path d="M37.1447 46.2514C34.051 45.9397 31.7846 45.0374 31.8736 44.1514C31.9627 43.2655 34.3627 42.8319 37.4564 43.1436C40.5502 43.4553 42.8166 44.3577 42.7275 45.2436C42.6385 46.1272 40.2385 46.5608 37.1447 46.2514ZM37.4307 43.4108C36.0736 43.2749 34.7893 43.303 33.8143 43.4881C32.9752 43.6475 32.4596 43.917 32.4291 44.2053C32.401 44.4936 32.8533 44.8592 33.6432 45.185C34.5619 45.5624 35.8158 45.846 37.1728 45.9819C38.5299 46.1178 39.8143 46.0897 40.7893 45.9045C41.6283 45.7452 42.1439 45.4756 42.1744 45.1874C42.2025 44.8991 41.7502 44.5335 40.9603 44.2077C40.0393 43.8303 38.7853 43.5467 37.4307 43.4108Z" fill="#CECFD1"/>
<path d="M38.3891 55.8029C38.4006 55.6883 38.317 55.586 38.2024 55.5745C38.0878 55.563 37.9855 55.6466 37.974 55.7612C37.9625 55.8758 38.046 55.9781 38.1607 55.9896C38.2753 56.0011 38.3776 55.9176 38.3891 55.8029Z" fill="#E5A315"/>
<path d="M38.8418 55.2731C38.8497 55.1945 38.7924 55.1244 38.7138 55.1165C38.6353 55.1086 38.5652 55.1659 38.5573 55.2445C38.5494 55.323 38.6067 55.3931 38.6852 55.401C38.7638 55.4089 38.8339 55.3516 38.8418 55.2731Z" fill="#E5A315"/>
<path d="M38.0603 54.9257C38.0743 54.7866 37.9728 54.6625 37.8337 54.6486C37.6946 54.6346 37.5705 54.736 37.5566 54.8751C37.5426 55.0142 37.644 55.1383 37.7831 55.1523C37.9222 55.1663 38.0463 55.0648 38.0603 54.9257Z" fill="#E5A315"/>
<path d="M38.9656 54.7561C38.98 54.6131 38.8757 54.4856 38.7328 54.4712C38.5898 54.4568 38.4623 54.5611 38.4479 54.704C38.4335 54.847 38.5378 54.9745 38.6807 54.9889C38.8237 55.0033 38.9512 54.899 38.9656 54.7561Z" fill="#E5A315"/>
<path d="M38.1977 53.5627C38.2092 53.4481 38.1256 53.3458 38.011 53.3343C37.8964 53.3228 37.7941 53.4063 37.7826 53.521C37.7711 53.6356 37.8546 53.7379 37.9693 53.7494C38.0839 53.7609 38.1862 53.6773 38.1977 53.5627Z" fill="#E5A315"/>
<path d="M38.7073 53.7141C38.7175 53.6124 38.6433 53.5216 38.5416 53.5114C38.4398 53.5012 38.3491 53.5754 38.3388 53.6771C38.3286 53.7788 38.4028 53.8696 38.5045 53.8798C38.6063 53.8901 38.6971 53.8159 38.7073 53.7141Z" fill="#E5A315"/>
<path d="M39.6096 52.6048C39.6199 52.503 39.5457 52.4122 39.4439 52.402C39.3422 52.3918 39.2514 52.466 39.2412 52.5677C39.2309 52.6695 39.3051 52.7602 39.4069 52.7705C39.5086 52.7807 39.5994 52.7065 39.6096 52.6048Z" fill="#E5A315"/>
<path d="M37.9996 51.3352C38.0126 51.2064 37.9186 51.0915 37.7898 51.0785C37.6611 51.0656 37.5462 51.1595 37.5332 51.2883C37.5203 51.4171 37.6142 51.532 37.743 51.5449C37.8718 51.5579 37.9867 51.464 37.9996 51.3352Z" fill="#E5A315"/>
<path d="M39.0546 53.1516C39.0704 52.9945 38.9559 52.8543 38.7987 52.8385C38.6416 52.8227 38.5014 52.9373 38.4856 53.0944C38.4698 53.2515 38.5844 53.3917 38.7415 53.4075C38.8987 53.4233 39.0388 53.3087 39.0546 53.1516Z" fill="#E5A315"/>
<path d="M38.3905 52.1983C38.4061 52.0437 38.2934 51.9059 38.1388 51.8903C37.9843 51.8748 37.8464 51.9875 37.8309 52.142C37.8153 52.2966 37.928 52.4345 38.0826 52.45C38.2371 52.4655 38.375 52.3528 38.3905 52.1983Z" fill="#E5A315"/>
<path d="M39.3071 51.9475C39.3186 51.8328 39.235 51.7306 39.1204 51.719C39.0057 51.7075 38.9035 51.7911 38.892 51.9057C38.8804 52.0204 38.964 52.1226 39.0786 52.1341C39.1933 52.1457 39.2955 52.0621 39.3071 51.9475Z" fill="#E5A315"/>
<path d="M31.8021 44.8301C31.8021 44.8301 31.392 45.2145 30.1029 45.3082C28.999 45.3879 27.7686 45.8895 27.5154 49.5059C27.2951 52.6605 27.649 53.4199 29.4279 54.034C30.9771 54.5684 30.9303 55.0066 30.9303 55.0066L31.7811 54.5262L32.1725 50.6355L32.6389 45.5754L31.8021 44.8301ZM31.249 49.7824C31.1178 51.0926 30.949 52.1473 29.9928 52.0512C28.9756 51.948 29.0811 50.8863 29.2146 49.5785C29.3459 48.2684 29.4537 47.2066 30.4709 47.3098C31.4857 47.4105 31.3803 48.4723 31.249 49.7824Z" fill="#E0E0E0"/>
<path d="M40.3332 56.8398C40.2207 57.0812 39.8691 57.5195 38.9715 57.7679C38.4184 57.9203 37.6168 58.0258 36.977 57.8969C36.841 57.8687 36.8973 57.7398 36.9934 57.7304C37.5418 57.6883 38.0785 57.5969 38.7231 57.4094C39.5621 57.1656 40.1457 56.7859 40.2277 56.7414C40.3637 56.664 40.352 56.8 40.3332 56.8398ZM34.6637 47.1414C34.4527 46.9469 34.2934 46.7758 33.9934 46.5953C33.8504 46.5086 33.616 46.4734 33.4027 46.4617L33.0277 50.5258C33.0277 50.5703 33.0559 50.6851 33.1941 50.7625C33.3113 50.8258 33.991 51.0672 34.5066 51.2125C34.6426 51.2429 34.734 51.1867 34.7434 51.1187L35.1301 47.439C34.9449 47.35 34.7668 47.2375 34.6637 47.1414ZM30.1027 45.8265C29.6434 45.857 29.327 46 28.9918 46.3164C28.7645 46.5344 28.4363 47.0265 28.4082 47.507C28.4082 47.5445 28.4059 47.7484 28.4902 47.7484C28.6215 47.7484 28.6731 47.5937 28.6895 47.5258C28.7481 47.3078 29.0504 46.7617 29.2309 46.5906C29.5777 46.2648 30.0043 46.2179 30.1801 46.1781C30.2832 46.1547 30.5551 46.0539 30.5457 45.9601C30.5316 45.8101 30.1988 45.8219 30.1027 45.8265Z" fill="white"/>
<path d="M34.0126 40.4137C33.8392 40.5191 33.6751 40.6434 33.4759 40.6832C33.1408 40.7488 32.808 40.5801 32.4564 40.6809C31.4626 40.9668 30.9376 41.7098 31.1978 42.7012C31.2845 43.034 31.1462 43.1746 31.0291 43.4793C30.7126 44.3207 31.2072 45.4738 32.1517 45.6731C32.7166 45.7926 33.2931 45.5793 33.8439 45.6941C34.308 45.7926 34.5072 46.252 34.9056 46.4559C35.283 46.6481 35.7189 46.7324 36.1361 46.7606C36.6986 46.8004 37.4791 46.4371 37.9525 46.8918C38.6861 47.5973 38.0369 48.8324 38.9322 49.4957C39.2978 49.7676 39.8345 49.7652 40.2283 49.5684C40.983 49.1934 40.9056 48.2488 41.1798 47.5832C41.2525 47.4051 41.3416 47.2457 41.5173 47.1496C41.6908 47.0535 41.8689 47.1027 42.0564 47.0512C42.3072 46.9809 42.5462 46.8754 42.7501 46.7113C42.9845 46.5168 42.872 46.0996 43.2353 46.0668C43.3478 46.0551 43.4978 46.0082 43.5892 45.9543C44.0861 45.652 44.2595 44.9582 43.9712 44.4543C43.8658 44.2691 43.7767 44.2106 43.772 43.9949C43.7673 43.7981 43.8283 43.634 43.7744 43.4277C43.6431 42.9215 43.2283 42.5676 42.7431 42.3848C42.6541 42.3496 42.558 42.3191 42.4642 42.2934C42.3072 42.2488 42.1759 42.2277 42.0634 42.0988C42.0048 42.0332 41.965 41.9395 41.9298 41.8621C41.8244 41.6488 41.672 41.4731 41.4986 41.3113C40.9876 40.8285 40.2611 40.6574 39.5673 40.6809C39.3798 40.6879 39.2087 40.7348 39.0259 40.7816C38.5689 40.8988 38.4259 40.5895 38.0908 40.3668C37.6736 40.0902 37.1486 40.0316 36.6587 40.0527C36.3705 40.0668 36.1455 40.2121 35.8806 40.2918C35.5736 40.3856 35.4166 40.2801 35.1236 40.2285C34.8634 40.184 34.5775 40.2215 34.3197 40.2801C34.2119 40.3035 34.1111 40.3551 34.0126 40.4137" fill="#E9E2CF"/>
<mask id="mask0_3356_1283" style="mask-type:luminance" maskUnits="userSpaceOnUse" x="30" y="40" width="15" height="10">
<path d="M34.0126 40.4137C33.8392 40.5191 33.6751 40.6434 33.4759 40.6832C33.1408 40.7488 32.808 40.5801 32.4564 40.6809C31.4626 40.9668 30.9376 41.7098 31.1978 42.7012C31.2845 43.034 31.1462 43.1746 31.0291 43.4793C30.7126 44.3207 31.2072 45.4738 32.1517 45.6731C32.7166 45.7926 33.2931 45.5793 33.8439 45.6941C34.308 45.7926 34.5072 46.252 34.9056 46.4559C35.283 46.6481 35.7189 46.7324 36.1361 46.7606C36.6986 46.8004 37.4791 46.4371 37.9525 46.8918C38.6861 47.5973 38.0369 48.8324 38.9322 49.4957C39.2978 49.7676 39.8345 49.7652 40.2283 49.5684C40.983 49.1934 40.9056 48.2488 41.1798 47.5832C41.2525 47.4051 41.3416 47.2457 41.5173 47.1496C41.6908 47.0535 41.8689 47.1027 42.0564 47.0512C42.3072 46.9809 42.5462 46.8754 42.7501 46.7113C42.9845 46.5168 42.872 46.0996 43.2353 46.0668C43.3478 46.0551 43.4978 46.0082 43.5892 45.9543C44.0861 45.652 44.2595 44.9582 43.9712 44.4543C43.8658 44.2691 43.7767 44.2106 43.772 43.9949C43.7673 43.7981 43.8283 43.634 43.7744 43.4277C43.6431 42.9215 43.2283 42.5676 42.7431 42.3848C42.6541 42.3496 42.558 42.3191 42.4642 42.2934C42.3072 42.2488 42.1759 42.2277 42.0634 42.0988C42.0048 42.0332 41.965 41.9395 41.9298 41.8621C41.8244 41.6488 41.672 41.4731 41.4986 41.3113C40.9876 40.8285 40.2611 40.6574 39.5673 40.6809C39.3798 40.6879 39.2087 40.7348 39.0259 40.7816C38.5689 40.8988 38.4259 40.5895 38.0908 40.3668C37.6736 40.0902 37.1486 40.0316 36.6587 40.0527C36.3705 40.0668 36.1455 40.2121 35.8806 40.2918C35.5736 40.3856 35.4166 40.2801 35.1236 40.2285C34.8634 40.184 34.5775 40.2215 34.3197 40.2801C34.2119 40.3035 34.1111 40.3551 34.0126 40.4137" fill="white"/>
</mask>
<g mask="url(#mask0_3356_1283)">
<path d="M44.0398 43.5318C43.9039 43.9373 43.5453 44.2607 43.1281 44.3521C42.7109 44.4435 42.2492 44.3029 41.9563 43.9912C41.7922 44.1716 41.4219 43.9419 41.3 44.0076C41.1781 44.0732 40.8828 44.7763 40.468 44.7716C40.1891 45.0482 39.7555 45.156 39.3781 45.0458C39.0008 44.9357 38.7852 44.2091 38.6094 44.2255C38.4336 44.2419 38.3117 44.4787 38.1219 44.474C38.0281 44.4716 37.9297 44.4458 37.8383 44.4716C37.6508 44.5232 37.5734 44.7529 37.4047 44.849C37.243 44.9404 37.0391 44.8888 36.8562 44.931C36.7391 44.9568 36.6359 45.0224 36.5281 45.074C36.0992 45.2802 35.5789 45.2873 35.1453 45.0904C34.9286 44.9901 34.7362 44.8442 34.5813 44.6625C34.4263 44.4809 34.3125 44.2678 34.2477 44.038C33.957 44.3099 33.2586 44.4576 33.0594 44.3779C32.8578 44.2982 32.6164 44.6943 32.3375 44.7201C32.0422 44.7482 31.7375 44.7763 31.4516 44.6966C31.1656 44.6169 30.8961 44.4037 30.8398 44.1107C30.6898 44.481 30.4789 44.8279 30.2188 45.1326C31.2148 45.7208 32.2109 46.3115 33.207 46.8998C33.343 46.9794 33.4813 47.0638 33.582 47.1857C33.8141 47.4693 33.7883 47.8982 34.0109 48.1888C34.25 48.4982 34.6859 48.5521 35.0727 48.5802C35.4453 48.6083 35.818 48.6365 36.193 48.6669C36.3664 48.681 36.5492 48.6951 36.6945 48.7912C37.1 49.0513 36.9898 49.7076 37.3109 50.0662C37.5594 50.3404 37.9766 50.3568 38.3445 50.3498C39.3828 50.3333 40.4234 50.3052 41.4617 50.2677C41.5578 50.2654 41.6586 50.2607 41.7477 50.2232C41.8719 50.1716 41.9609 50.0662 42.0477 49.9654C42.7497 49.1559 43.5661 48.4532 44.4711 47.8794C44.7008 47.7341 44.9422 47.5912 45.0945 47.3685C45.2328 47.1693 45.2867 46.9232 45.3383 46.6865C45.3922 46.4333 45.4484 46.1779 45.5023 45.9248C45.5258 45.8193 45.5492 45.7091 45.5281 45.6013C45.5 45.4537 45.3945 45.3341 45.2984 45.2169C45.051 44.9142 44.8517 44.575 44.7078 44.2115C44.6398 44.038 44.5812 43.8576 44.4664 43.7099C44.3516 43.5646 44.1594 43.4591 43.9789 43.5083" fill="#E2D2BA"/>
</g>
<path d="M38.9124 46.7352C39.1819 47.0235 39.1796 47.4735 39.1631 47.8743C39.1467 48.2891 39.1983 49.0532 39.4796 49.0321C39.6764 48.9922 39.7374 48.7485 39.7608 48.5493C39.8171 48.0594 39.8733 47.5508 39.7139 47.0844C39.6436 46.8805 39.5264 46.6813 39.3436 46.5711C39.1772 46.4727 38.7014 46.4047 38.9124 46.7352Z" fill="#F7EFDA"/>
<path d="M51.2129 47.2758L51.9746 47.2148L53.2613 58.3734C53.5027 60.2414 50.8824 61.3055 48.3395 61.6359L46.5629 47.8781L51.2129 47.2758ZM41.9082 48.4758L41.1582 48.6094L42.7473 59.7281C42.9887 61.5961 45.7918 61.9617 48.3371 61.6312L46.5605 47.8734L41.9082 48.4758Z" fill="#E0E0E0"/>
<path d="M46.3967 46.6134C47.7491 46.44 49.0335 46.4306 50.0155 46.59C50.8569 46.7259 51.3819 46.9814 51.4194 47.2673C51.4569 47.5556 51.0139 47.9329 50.2335 48.2798C49.3241 48.6829 48.0795 49.0017 46.7295 49.1751C45.3795 49.3485 44.0928 49.3579 43.1131 49.1985C42.2717 49.0626 41.7467 48.8071 41.7092 48.5212C41.6717 48.2329 42.1147 47.8556 42.8952 47.5087C43.7999 47.1056 45.0467 46.7892 46.3967 46.6134Z" fill="#FAFAFA"/>
<path d="M51.4355 51.5801L52.1855 57.7816C52.1902 58.1355 51.9488 58.5059 51.5809 58.7355C50.9246 59.1457 49.6027 59.6355 48.0957 59.8301C46.6543 60.0152 45.3934 59.8863 44.641 59.6777C44.1652 59.5441 43.7527 59.209 43.6566 58.8855L42.7871 52.6934" fill="#FBCC2F"/>
<path d="M47.2498 53.2059C49.6389 52.8974 51.5139 52.1695 51.4378 51.5803C51.3617 50.991 49.3633 50.7635 46.9742 51.0721C44.5852 51.3807 42.7101 52.1085 42.7862 52.6978C42.8624 53.287 44.8608 53.5145 47.2498 53.2059Z" fill="#E5A315"/>
<path d="M41.1546 48.5937C41.0398 47.7101 43.2804 46.7445 46.3624 46.346C49.4468 45.9476 51.8562 46.3132 51.971 47.1968C52.0859 48.0804 49.8452 49.046 46.7632 49.4445C43.6812 49.8429 41.2695 49.4773 41.1546 48.5937ZM42.8937 47.5085C42.1132 47.8554 41.6702 48.2328 41.7077 48.521C41.7452 48.8093 42.2702 49.0624 43.1116 49.1984C44.0937 49.3578 45.378 49.3484 46.728 49.1749C48.078 49.0015 49.3249 48.6828 50.232 48.2796C51.0124 47.9328 51.4554 47.5554 51.4179 47.2671C51.3804 46.9789 50.8554 46.7257 50.014 46.5898C49.032 46.4304 47.7476 46.4398 46.3952 46.6132C45.0429 46.7867 43.8007 47.1054 42.8937 47.5085Z" fill="#CECFD1"/>
<path d="M46.0201 59.2073C46.1343 59.1926 46.215 59.088 46.2002 58.9737C46.1855 58.8595 46.0809 58.7788 45.9666 58.7936C45.8524 58.8083 45.7717 58.9129 45.7865 59.0272C45.8012 59.1414 45.9058 59.2221 46.0201 59.2073Z" fill="#E5A315"/>
<path d="M45.4831 58.6325C45.5614 58.6223 45.6167 58.5507 45.6066 58.4723C45.5965 58.394 45.5248 58.3388 45.4465 58.3489C45.3682 58.359 45.3129 58.4307 45.323 58.509C45.3331 58.5873 45.4048 58.6426 45.4831 58.6325Z" fill="#E5A315"/>
<path d="M46.3764 58.3583C46.5151 58.3404 46.613 58.2135 46.5951 58.0749C46.5771 57.9362 46.4502 57.8383 46.3116 57.8562C46.1729 57.8742 46.0751 58.0011 46.093 58.1397C46.1109 58.2784 46.2378 58.3762 46.3764 58.3583Z" fill="#E5A315"/>
<path d="M45.4751 58.219C45.6176 58.2006 45.7181 58.0702 45.6997 57.9277C45.6813 57.7852 45.5509 57.6846 45.4084 57.703C45.2659 57.7214 45.1653 57.8518 45.1837 57.9943C45.2021 58.1368 45.3326 58.2374 45.4751 58.219Z" fill="#E5A315"/>
<path d="M46.1529 56.9612C46.2672 56.9465 46.3478 56.8419 46.333 56.7277C46.3183 56.6134 46.2137 56.5327 46.0995 56.5475C45.9852 56.5623 45.9045 56.6668 45.9193 56.7811C45.9341 56.8953 46.0386 56.976 46.1529 56.9612Z" fill="#E5A315"/>
<path d="M45.6178 57.1072C45.7192 57.0941 45.7908 57.0013 45.7777 56.8999C45.7646 56.7984 45.6718 56.7269 45.5703 56.74C45.4689 56.7531 45.3973 56.8459 45.4104 56.9473C45.4235 57.0487 45.5164 57.1203 45.6178 57.1072Z" fill="#E5A315"/>
<path d="M44.6842 56.0232C44.7856 56.0101 44.8572 55.9173 44.8441 55.8159C44.831 55.7145 44.7382 55.6429 44.6368 55.656C44.5353 55.6691 44.4637 55.7619 44.4768 55.8633C44.4899 55.9647 44.5828 56.0363 44.6842 56.0232Z" fill="#E5A315"/>
<path d="M46.312 54.7513C46.4404 54.7347 46.531 54.6172 46.5144 54.4888C46.4979 54.3604 46.3804 54.2698 46.252 54.2864C46.1236 54.303 46.033 54.4205 46.0496 54.5489C46.0661 54.6772 46.1836 54.7679 46.312 54.7513Z" fill="#E5A315"/>
<path d="M45.3705 56.6419C45.5271 56.6216 45.6377 56.4783 45.6175 56.3216C45.5972 56.165 45.4539 56.0545 45.2973 56.0747C45.1406 56.0949 45.0301 56.2383 45.0503 56.3949C45.0705 56.5515 45.2139 56.6621 45.3705 56.6419Z" fill="#E5A315"/>
<path d="M45.9994 55.6664C46.1535 55.6465 46.2622 55.5055 46.2423 55.3514C46.2224 55.1974 46.0814 55.0886 45.9274 55.1085C45.7733 55.1284 45.6646 55.2694 45.6845 55.4235C45.7044 55.5775 45.8454 55.6863 45.9994 55.6664Z" fill="#E5A315"/>
<path d="M44.9966 55.3792C45.1109 55.3645 45.1916 55.2599 45.1768 55.1456C45.162 55.0314 45.0575 54.9507 44.9432 54.9655C44.8289 54.9802 44.7483 55.0848 44.763 55.1991C44.7778 55.3133 44.8824 55.394 44.9966 55.3792Z" fill="#E5A315"/>
<path d="M56.4773 52.4266C56.1234 48.8172 54.8789 48.3508 53.775 48.3039C52.4836 48.2477 52.0617 47.875 52.0617 47.875L51.2461 48.6437L51.8555 53.6875L52.357 57.5664L53.2219 58.0211C53.2219 58.0211 53.1633 57.5828 54.6961 57.0063C56.4563 56.3406 56.7867 55.5742 56.4773 52.4266ZM54.075 55.0398C53.1234 55.1617 52.9242 54.1117 52.7555 52.8086C52.5867 51.5055 52.4508 50.4461 53.4656 50.3148C54.4805 50.1836 54.6164 51.243 54.7852 52.5461C54.9516 53.8492 55.0875 54.9086 54.075 55.0398Z" fill="#E0E0E0"/>
<path d="M52.2609 59.0663C52.2 59.3264 51.9445 59.8257 51.1148 60.2522C50.6039 60.5147 49.8398 60.7819 49.1882 60.7843C49.0476 60.7843 49.0781 60.646 49.1695 60.6202C49.6968 60.4679 50.2054 60.2686 50.7984 59.9546C51.5718 59.5444 52.064 59.0546 52.1343 58.9936C52.2562 58.8882 52.2726 59.0241 52.2609 59.0663ZM53.789 48.8218C54.2507 48.8405 54.5695 48.9718 54.9117 49.2811C55.1461 49.4921 55.4859 49.9749 55.5281 50.4554C55.5304 50.4929 55.5375 50.6944 55.4531 50.6968C55.3218 50.7014 55.2679 50.5468 55.2468 50.4811C55.1812 50.2655 54.8648 49.7264 54.6773 49.5624C54.3211 49.246 53.8921 49.2132 53.7164 49.1757C53.6109 49.1546 53.3367 49.0608 53.3461 48.9671C53.3601 48.8147 53.6929 48.8171 53.789 48.8218Z" fill="white"/>
<path d="M49.7278 43.5223C49.9036 43.6208 50.0724 43.7426 50.2716 43.7755C50.6067 43.8317 50.9349 43.6536 51.2888 43.745C52.2895 44.0028 52.8356 44.7294 52.606 45.7278C52.5286 46.063 52.6716 46.1989 52.7958 46.5012C53.1356 47.3333 52.6739 48.4981 51.7364 48.7255C51.1763 48.8614 50.5927 48.6622 50.0442 48.7934C49.5825 48.9036 49.3974 49.37 49.0036 49.5833C48.6333 49.7872 48.1997 49.8833 47.7825 49.9231C47.22 49.977 46.4325 49.6372 45.9708 50.1059C45.2583 50.8301 45.9403 52.0489 45.0661 52.7356C44.7075 53.0169 44.1708 53.0309 43.7747 52.8458C43.0106 52.4919 43.0599 51.5473 42.7669 50.8864C42.6895 50.7106 42.5958 50.5536 42.4177 50.4622C42.2395 50.3708 42.0638 50.4247 41.8763 50.3778C41.6231 50.3145 41.3794 50.2161 41.1731 50.0567C40.9317 49.8692 41.0349 49.4497 40.6692 49.4262C40.5567 49.4192 40.4067 49.3747 40.313 49.3231C39.8067 49.0348 39.6146 48.3481 39.8888 47.8348C39.9896 47.6473 40.0763 47.5864 40.0763 47.3684C40.0763 47.1715 40.0106 47.0098 40.0599 46.8012C40.1771 46.2903 40.5825 45.927 41.0606 45.7301C41.1497 45.6926 41.2435 45.6598 41.3372 45.6317C41.4942 45.5825 41.6255 45.559 41.731 45.4255C41.7872 45.3575 41.8247 45.2637 41.8599 45.184C41.9606 44.9684 42.1083 44.788 42.2747 44.6215C42.7716 44.1247 43.4935 43.9325 44.1872 43.9372C44.3747 43.9372 44.5458 43.9794 44.731 44.0215C45.1927 44.1247 45.3263 43.813 45.6544 43.5809C46.0622 43.2926 46.5872 43.22 47.0771 43.227C47.3653 43.2317 47.595 43.3723 47.8622 43.445C48.1716 43.5317 48.3263 43.4192 48.6169 43.3606C48.8771 43.309 49.163 43.3395 49.4208 43.3911C49.5263 43.4169 49.6294 43.4661 49.7278 43.5223" fill="#E9E2CF"/>
<mask id="mask1_3356_1283" style="mask-type:luminance" maskUnits="userSpaceOnUse" x="39" y="43" width="14" height="10">
<path d="M49.7278 43.5223C49.9036 43.6208 50.0724 43.7426 50.2716 43.7755C50.6067 43.8317 50.9349 43.6536 51.2888 43.745C52.2895 44.0028 52.8356 44.7294 52.606 45.7278C52.5286 46.063 52.6716 46.1989 52.7958 46.5012C53.1356 47.3333 52.6739 48.4981 51.7364 48.7255C51.1763 48.8614 50.5927 48.6622 50.0442 48.7934C49.5825 48.9036 49.3974 49.37 49.0036 49.5833C48.6333 49.7872 48.1997 49.8833 47.7825 49.9231C47.22 49.977 46.4325 49.6372 45.9708 50.1059C45.2583 50.8301 45.9403 52.0489 45.0661 52.7356C44.7075 53.0169 44.1708 53.0309 43.7747 52.8458C43.0106 52.4919 43.0599 51.5473 42.7669 50.8864C42.6895 50.7106 42.5958 50.5536 42.4177 50.4622C42.2395 50.3708 42.0638 50.4247 41.8763 50.3778C41.6231 50.3145 41.3794 50.2161 41.1731 50.0567C40.9317 49.8692 41.0349 49.4497 40.6692 49.4262C40.5567 49.4192 40.4067 49.3747 40.313 49.3231C39.8067 49.0348 39.6146 48.3481 39.8888 47.8348C39.9896 47.6473 40.0763 47.5864 40.0763 47.3684C40.0763 47.1715 40.0106 47.0098 40.0599 46.8012C40.1771 46.2903 40.5825 45.927 41.0606 45.7301C41.1497 45.6926 41.2435 45.6598 41.3372 45.6317C41.4942 45.5825 41.6255 45.559 41.731 45.4255C41.7872 45.3575 41.8247 45.2637 41.8599 45.184C41.9606 44.9684 42.1083 44.788 42.2747 44.6215C42.7716 44.1247 43.4935 43.9325 44.1872 43.9372C44.3747 43.9372 44.5458 43.9794 44.731 44.0215C45.1927 44.1247 45.3263 43.813 45.6544 43.5809C46.0622 43.2926 46.5872 43.22 47.0771 43.227C47.3653 43.2317 47.595 43.3723 47.8622 43.445C48.1716 43.5317 48.3263 43.4192 48.6169 43.3606C48.8771 43.309 49.163 43.3395 49.4208 43.3911C49.5263 43.4169 49.6294 43.4661 49.7278 43.5223" fill="white"/>
</mask>
<g mask="url(#mask1_3356_1283)">
<path d="M39.7923 46.9205C39.9399 47.3213 40.3079 47.6354 40.7274 47.7151C41.1469 47.7948 41.6063 47.6401 41.8899 47.3213C42.0587 47.4971 42.4243 47.258 42.5462 47.3213C42.668 47.3846 42.9844 48.0783 43.3993 48.0619C43.6876 48.3291 44.1235 48.4276 44.4962 48.3057C44.8688 48.1838 45.0657 47.4526 45.2415 47.4643C45.4173 47.476 45.5462 47.7104 45.736 47.6987C45.8298 47.694 45.9259 47.6658 46.0196 47.6869C46.2094 47.7315 46.2938 47.9612 46.4649 48.0526C46.629 48.1393 46.8329 48.083 47.0157 48.1182C47.1329 48.1416 47.2384 48.2026 47.3485 48.2518C47.7821 48.4463 48.3048 48.4369 48.7313 48.2283C48.9455 48.1224 49.134 47.9711 49.2838 47.7849C49.4335 47.5987 49.5409 47.3821 49.5985 47.1502C49.8962 47.4151 50.5969 47.5416 50.7962 47.4573C50.9954 47.3729 51.2485 47.7596 51.5274 47.7783C51.8251 47.7994 52.1298 47.8182 52.4134 47.7291C52.6969 47.6401 52.9594 47.4198 53.0087 47.1268C53.1704 47.4924 53.3907 47.8323 53.6579 48.1299C52.6782 48.7463 51.7009 49.3651 50.7212 49.9815C50.5876 50.0658 50.4516 50.1526 50.3555 50.2768C50.1329 50.5674 50.1704 50.994 49.9548 51.2916C49.7251 51.6057 49.2915 51.6737 48.9024 51.7135C48.5298 51.7533 48.1571 51.7908 47.7868 51.8307C47.6134 51.8494 47.4329 51.8705 47.2876 51.969C46.8915 52.2408 47.018 52.8924 46.7063 53.2604C46.4673 53.5416 46.0501 53.5698 45.6798 53.5721C44.6415 53.5838 43.6009 53.5862 42.5626 53.5791C42.4665 53.5791 42.3657 53.5768 42.2743 53.5416C42.1501 53.4948 42.0563 53.3916 41.9673 53.2932C41.2419 52.5047 40.4058 51.8257 39.4852 51.2776C39.2532 51.1393 39.0071 51.0033 38.8477 50.7854C38.7048 50.5885 38.6415 50.3471 38.5852 50.1104C38.5219 49.8573 38.461 49.6041 38.3977 49.3533C38.3719 49.2479 38.3462 49.1377 38.3626 49.0299C38.386 48.8799 38.4891 48.758 38.5829 48.6385C38.8219 48.3291 39.0118 47.9823 39.1454 47.6166C39.2087 47.4408 39.2626 47.258 39.3727 47.1104C39.4829 46.9604 39.6727 46.8502 39.8532 46.8948" fill="#E2D2BA"/>
</g>
<path d="M45.01 49.9788C44.7498 50.2741 44.7639 50.7241 44.792 51.1249C44.8201 51.5398 44.792 52.3038 44.5084 52.2921C44.3116 52.2569 44.2436 52.0155 44.2131 51.8163C44.1428 51.3288 44.0725 50.8226 44.2178 50.3515C44.2811 50.1452 44.3936 49.9437 44.5741 49.8265C44.7358 49.7233 45.2092 49.6413 45.01 49.9788Z" fill="#F7EFDA"/>
</g>
<defs>
<clipPath id="clip0_3356_1283">
<rect width="240" height="177" fill="white"/>
</clipPath>
</defs>
</svg>
