<svg width="240" height="177" viewBox="0 0 240 177" fill="none" xmlns="http://www.w3.org/2000/svg">
<g clip-path="url(#clip0_3356_1322)">
<path d="M228 0H12C5.37258 0 0 5.37258 0 12V165C0 171.627 5.37258 177 12 177H228C234.627 177 240 171.627 240 165V12C240 5.37258 234.627 0 228 0Z" fill="#C1DAF9"/>
<path d="M42 75C55.2548 75 66 63.8071 66 50C66 36.1929 55.2548 25 42 25C28.7452 25 18 36.1929 18 50C18 63.8071 28.7452 75 42 75Z" fill="white"/>
<path d="M19.5 109C19.2067 109 19.06 108.907 19.06 108.72V108.66C19.06 108.54 19.1867 108.367 19.44 108.14C19.6933 107.9 19.82 107.633 19.82 107.34V96.46C19.82 96.1667 19.6933 95.9067 19.44 95.68C19.1867 95.44 19.06 95.26 19.06 95.14V95.08C19.06 94.8933 19.2067 94.8 19.5 94.8H23.9C26.3533 94.8 28.3667 95.4733 29.94 96.82C31.5267 98.1533 32.32 99.8267 32.32 101.84C32.32 104.013 31.6133 105.753 30.2 107.06C28.8 108.353 27 109 24.8 109H19.5ZM23.4 107.98H24.66C26.18 107.98 27.42 107.507 28.38 106.56C29.3533 105.613 29.84 104.34 29.84 102.74C29.84 100.753 29.2267 99.1067 28 97.8C26.7733 96.48 25.2533 95.82 23.44 95.82H22.88C22.4267 95.82 22.2 96.0667 22.2 96.56V106.56C22.2 107.013 22.3067 107.367 22.52 107.62C22.7333 107.86 23.0267 107.98 23.4 107.98ZM41.76 106.06C41.8667 105.913 42 105.86 42.16 105.9C42.3333 105.94 42.4133 106.06 42.4 106.26C42.2933 106.967 41.88 107.633 41.16 108.26C40.44 108.887 39.5 109.2 38.34 109.2C36.98 109.2 35.8467 108.733 34.94 107.8C34.0467 106.867 33.6 105.64 33.6 104.12C33.6 102.707 34.06 101.533 34.98 100.6C35.9133 99.6667 37.0467 99.2 38.38 99.2C39.58 99.2 40.5 99.5 41.14 100.1C41.7933 100.687 42.12 101.367 42.12 102.14C42.12 102.833 41.78 103.3 41.1 103.54L36.26 105.32C36.5133 106.013 36.8933 106.553 37.4 106.94C37.9067 107.327 38.5067 107.52 39.2 107.52C39.8 107.52 40.32 107.387 40.76 107.12C41.2133 106.84 41.5467 106.487 41.76 106.06ZM37.98 99.96C37.3533 99.96 36.8533 100.26 36.48 100.86C36.1067 101.46 35.92 102.247 35.92 103.22C35.92 103.673 35.96 104.1 36.04 104.5L39.36 103.06C39.7067 102.9 39.88 102.62 39.88 102.22C39.88 101.74 39.6933 101.247 39.32 100.74C38.96 100.22 38.5133 99.96 37.98 99.96ZM48.2202 109C47.9402 109 47.8002 108.9 47.8002 108.7V108.64C47.8002 108.507 47.9202 108.327 48.1602 108.1C48.4135 107.873 48.5402 107.62 48.5402 107.34V96.8C48.5402 96.48 48.4135 96.1933 48.1602 95.94C47.9202 95.6867 47.8002 95.52 47.8002 95.44V95.38C47.8002 95.26 47.9135 95.14 48.1402 95.02L50.1602 94.02C50.3868 93.9267 50.5602 93.92 50.6802 94C50.8135 94.0667 50.8802 94.18 50.8802 94.34V107.34C50.8802 107.62 51.0135 107.88 51.2802 108.12C51.5602 108.347 51.7002 108.52 51.7002 108.64V108.7C51.7002 108.9 51.5535 109 51.2602 109H48.2202ZM53.9169 99.82C53.7435 99.9267 53.5835 99.9067 53.4369 99.76C53.3035 99.6 53.3102 99.4467 53.4569 99.3C54.1102 98.66 54.4835 98.0733 54.5769 97.54C54.6169 97.3133 54.5502 97.2 54.3769 97.2C54.0569 97.2 53.7835 97.0667 53.5569 96.8C53.3435 96.5333 53.2369 96.1933 53.2369 95.78C53.2369 95.3133 53.3702 94.9333 53.6369 94.64C53.9169 94.3467 54.2769 94.2 54.7169 94.2C55.1569 94.2 55.5235 94.3667 55.8169 94.7C56.1235 95.02 56.2769 95.4533 56.2769 96C56.2769 97.5067 55.4902 98.78 53.9169 99.82ZM64.4944 106.06C64.601 105.913 64.7344 105.86 64.8944 105.9C65.0677 105.94 65.1477 106.06 65.1344 106.26C65.0277 106.967 64.6144 107.633 63.8944 108.26C63.1744 108.887 62.2344 109.2 61.0744 109.2C59.7144 109.2 58.581 108.733 57.6744 107.8C56.781 106.867 56.3344 105.64 56.3344 104.12C56.3344 102.707 56.7944 101.533 57.7144 100.6C58.6477 99.6667 59.781 99.2 61.1144 99.2C62.3144 99.2 63.2344 99.5 63.8744 100.1C64.5277 100.687 64.8544 101.367 64.8544 102.14C64.8544 102.833 64.5144 103.3 63.8344 103.54L58.9944 105.32C59.2477 106.013 59.6277 106.553 60.1344 106.94C60.641 107.327 61.241 107.52 61.9344 107.52C62.5344 107.52 63.0544 107.387 63.4944 107.12C63.9477 106.84 64.281 106.487 64.4944 106.06ZM60.7144 99.96C60.0877 99.96 59.5877 100.26 59.2144 100.86C58.841 101.46 58.6544 102.247 58.6544 103.22C58.6544 103.673 58.6944 104.1 58.7744 104.5L62.0944 103.06C62.441 102.9 62.6144 102.62 62.6144 102.22C62.6144 101.74 62.4277 101.247 62.0544 100.74C61.6944 100.22 61.2477 99.96 60.7144 99.96ZM76.2377 107.32C76.251 107.613 76.371 107.88 76.5977 108.12C76.8377 108.347 76.9577 108.52 76.9577 108.64V108.72C76.9577 108.92 76.811 109.02 76.5177 109.02H73.5977C73.3043 109.02 73.1577 108.92 73.1577 108.72V108.64C73.1577 108.52 73.2777 108.347 73.5177 108.12C73.771 107.88 73.891 107.613 73.8777 107.32L73.6777 103.46C73.5843 101.26 72.8843 100.16 71.5777 100.16C70.951 100.16 70.4443 100.393 70.0577 100.86C69.671 101.313 69.4777 101.907 69.4777 102.64V107.34C69.4777 107.633 69.611 107.893 69.8777 108.12C70.1577 108.347 70.2977 108.52 70.2977 108.64V108.72C70.2977 108.92 70.151 109.02 69.8577 109.02H66.7577C66.4777 109.02 66.3377 108.92 66.3377 108.72V108.64C66.3377 108.52 66.471 108.347 66.7377 108.12C67.0043 107.893 67.1377 107.633 67.1377 107.34V101.98C67.1377 101.727 67.0577 101.52 66.8977 101.36C66.751 101.2 66.6043 101.073 66.4577 100.98C66.311 100.873 66.2377 100.76 66.2377 100.64V100.58C66.2377 100.447 66.3577 100.327 66.5977 100.22L68.5377 99.28C68.751 99.1867 68.9043 99.18 68.9977 99.26C69.1043 99.3267 69.1577 99.4533 69.1577 99.64V100.94C69.4377 100.393 69.8443 99.9667 70.3777 99.66C70.911 99.3533 71.5177 99.2 72.1977 99.2C73.2243 99.2 74.091 99.5533 74.7977 100.26C75.5043 100.967 75.9043 102.06 75.9977 103.54L76.2377 107.32ZM81.6783 109.2C80.8116 109.2 80.1249 108.927 79.6183 108.38C79.1249 107.82 78.8783 107.013 78.8783 105.96V100.38H77.7383C77.5116 100.38 77.3983 100.267 77.3983 100.04V99.76C77.3983 99.52 77.5116 99.4 77.7383 99.4H78.3583C78.8649 99.4 79.2716 99.2267 79.5783 98.88C79.8983 98.5333 80.0983 98.06 80.1783 97.46C80.2183 97.1667 80.3516 97.02 80.5783 97.02H80.8783C81.1316 97.02 81.2583 97.1667 81.2583 97.46L81.2783 99.4H83.7983C83.9049 99.4 83.9916 99.4333 84.0583 99.5C84.1249 99.5667 84.1583 99.6533 84.1583 99.76V100.04C84.1583 100.267 84.0383 100.38 83.7983 100.38H81.2783V105.98C81.2783 106.447 81.3849 106.813 81.5983 107.08C81.8116 107.333 82.0849 107.46 82.4183 107.46C83.2183 107.46 83.6916 107.113 83.8383 106.42C83.8916 106.313 83.9716 106.247 84.0783 106.22C84.1849 106.193 84.2783 106.207 84.3583 106.26C84.4516 106.313 84.4983 106.4 84.4983 106.52C84.4983 107.24 84.2383 107.867 83.7183 108.4C83.2116 108.933 82.5316 109.2 81.6783 109.2ZM90.8997 99.2C91.473 99.2 91.9197 99.36 92.2397 99.68C92.573 100 92.7397 100.4 92.7397 100.88C92.7397 101.72 92.393 102.14 91.6997 102.14C91.4064 102.14 91.1797 102.06 91.0197 101.9C90.8597 101.74 90.7597 101.56 90.7197 101.36C90.6797 101.16 90.5864 100.98 90.4397 100.82C90.293 100.66 90.093 100.58 89.8397 100.58C89.3997 100.58 89.0597 100.82 88.8197 101.3C88.5797 101.78 88.4597 102.367 88.4597 103.06V107.34C88.4597 107.633 88.613 107.893 88.9197 108.12C89.2264 108.347 89.3797 108.52 89.3797 108.64V108.72C89.3797 108.907 89.2397 109 88.9597 109H85.8597C85.5797 109 85.4397 108.907 85.4397 108.72V108.64C85.4397 108.52 85.5664 108.347 85.8197 108.12C86.073 107.893 86.1997 107.633 86.1997 107.34V101.96C86.1997 101.653 86.053 101.393 85.7597 101.18C85.4797 100.953 85.3397 100.78 85.3397 100.66V100.6C85.3397 100.453 85.4597 100.313 85.6997 100.18L87.6597 99.28C88.0464 99.0933 88.2397 99.2067 88.2397 99.62V101.18C88.693 99.86 89.5797 99.2 90.8997 99.2ZM101.968 107.2C101.995 107.493 102.068 107.727 102.188 107.9C102.321 108.06 102.448 108.16 102.568 108.2C102.701 108.24 102.815 108.293 102.908 108.36C103.015 108.427 103.068 108.513 103.068 108.62C103.068 108.953 102.528 109.12 101.448 109.12C100.915 109.12 100.521 109.04 100.268 108.88C100.028 108.707 99.888 108.387 99.848 107.92C99.3146 108.773 98.388 109.2 97.068 109.2C95.948 109.2 95.0413 108.94 94.348 108.42C93.668 107.887 93.328 107.14 93.328 106.18C93.3146 105.233 93.6546 104.5 94.348 103.98C95.0413 103.447 95.9146 103.18 96.968 103.18C97.928 103.18 98.7013 103.407 99.288 103.86L99.248 103.46C99.128 102.233 98.9146 101.34 98.608 100.78C98.3013 100.22 97.8146 99.94 97.148 99.94C96.7346 99.94 96.388 100.067 96.108 100.32C95.8413 100.573 95.6546 100.853 95.548 101.16C95.4546 101.453 95.3146 101.727 95.128 101.98C94.9413 102.233 94.708 102.36 94.428 102.36C94.1346 102.36 93.8946 102.28 93.708 102.12C93.5346 101.947 93.448 101.72 93.448 101.44C93.448 100.8 93.7946 100.267 94.488 99.84C95.1946 99.4133 96.0813 99.2 97.148 99.2C98.4013 99.2 99.4146 99.5733 100.188 100.32C100.961 101.053 101.421 102.067 101.568 103.36L101.968 107.2ZM97.728 108.44C98.2746 108.44 98.7146 108.24 99.048 107.84C99.3946 107.44 99.5546 106.967 99.528 106.42L99.468 105.8C99.428 105.227 99.2346 104.773 98.888 104.44C98.5413 104.107 98.1013 103.94 97.568 103.94C97.008 103.94 96.5546 104.12 96.208 104.48C95.8613 104.827 95.688 105.3 95.688 105.9C95.688 106.607 95.8746 107.207 96.248 107.7C96.6346 108.193 97.128 108.44 97.728 108.44ZM105.758 97.74C105.264 97.74 104.864 97.6 104.558 97.32C104.251 97.04 104.098 96.68 104.098 96.24C104.098 95.8 104.251 95.44 104.558 95.16C104.864 94.88 105.264 94.74 105.758 94.74C106.238 94.74 106.624 94.88 106.918 95.16C107.224 95.44 107.378 95.8 107.378 96.24C107.378 96.68 107.224 97.04 106.918 97.32C106.624 97.6 106.238 97.74 105.758 97.74ZM104.278 109C103.998 109 103.858 108.9 103.858 108.7V108.62C103.858 108.5 103.978 108.327 104.218 108.1C104.471 107.873 104.598 107.613 104.598 107.32V102.08C104.598 101.773 104.471 101.487 104.218 101.22C103.978 100.953 103.858 100.78 103.858 100.7V100.64C103.858 100.533 103.978 100.413 104.218 100.28L106.218 99.28C106.444 99.1867 106.618 99.18 106.738 99.26C106.871 99.3267 106.938 99.4467 106.938 99.62V107.32C106.938 107.613 107.071 107.873 107.338 108.1C107.618 108.327 107.758 108.5 107.758 108.62V108.7C107.758 108.9 107.611 109 107.318 109H104.278ZM118.571 107.34C118.571 107.633 118.697 107.9 118.951 108.14C119.204 108.38 119.331 108.553 119.331 108.66V108.72C119.331 108.907 119.217 109 118.991 109H116.911C116.671 109 116.537 108.873 116.511 108.62L116.451 107.92C115.784 108.773 114.851 109.2 113.651 109.2C112.371 109.2 111.271 108.74 110.351 107.82C109.444 106.9 108.991 105.687 108.991 104.18C108.991 102.727 109.437 101.533 110.331 100.6C111.237 99.6667 112.357 99.2 113.691 99.2C114.731 99.2 115.604 99.54 116.311 100.22V96.46C116.311 96.2067 116.231 96 116.071 95.84C115.924 95.68 115.771 95.5533 115.611 95.46C115.464 95.3533 115.391 95.24 115.391 95.12V95.08C115.391 94.9067 115.511 94.7733 115.751 94.68L117.871 94C118.337 93.84 118.571 93.96 118.571 94.36V107.34ZM114.191 108.44C114.737 108.44 115.224 108.213 115.651 107.76C116.091 107.307 116.311 106.673 116.311 105.86V102.66C116.311 101.993 116.057 101.38 115.551 100.82C115.044 100.247 114.451 99.96 113.771 99.96C113.024 99.96 112.424 100.267 111.971 100.88C111.517 101.48 111.284 102.307 111.271 103.36C111.244 104.76 111.497 105.953 112.031 106.94C112.577 107.927 113.297 108.427 114.191 108.44ZM128.655 106.06C128.761 105.913 128.895 105.86 129.055 105.9C129.228 105.94 129.308 106.06 129.295 106.26C129.188 106.967 128.775 107.633 128.055 108.26C127.335 108.887 126.395 109.2 125.235 109.2C123.875 109.2 122.741 108.733 121.835 107.8C120.941 106.867 120.495 105.64 120.495 104.12C120.495 102.707 120.955 101.533 121.875 100.6C122.808 99.6667 123.941 99.2 125.275 99.2C126.475 99.2 127.395 99.5 128.035 100.1C128.688 100.687 129.015 101.367 129.015 102.14C129.015 102.833 128.675 103.3 127.995 103.54L123.155 105.32C123.408 106.013 123.788 106.553 124.295 106.94C124.801 107.327 125.401 107.52 126.095 107.52C126.695 107.52 127.215 107.387 127.655 107.12C128.108 106.84 128.441 106.487 128.655 106.06ZM124.875 99.96C124.248 99.96 123.748 100.26 123.375 100.86C123.001 101.46 122.815 102.247 122.815 103.22C122.815 103.673 122.855 104.1 122.935 104.5L126.255 103.06C126.601 102.9 126.775 102.62 126.775 102.22C126.775 101.74 126.588 101.247 126.215 100.74C125.855 100.22 125.408 99.96 124.875 99.96Z" fill="black"/>
<g clip-path="url(#clip1_3356_1322)">
<path d="M30.6565 41.4299C32.5362 40.8533 34.1745 42.6463 35.5292 42.2197C37.5097 41.5939 38.6581 41.4674 40.7768 42.1236C42.912 42.7869 45.4034 44.6197 47.2151 45.8877C48.8112 47.0057 50.8831 48.8244 52.2612 50.226C53.1542 51.1353 53.1307 51.7611 52.955 52.2299C52.7276 52.8346 52.0737 53.158 51.2698 53.1275C51.1854 53.1252 51.1198 53.2025 51.1503 53.2822C51.4339 54.0721 51.1714 54.7494 50.7893 55.0869C50.2222 55.5861 49.5729 55.6916 48.8323 55.4268C48.8139 55.4204 48.7942 55.4192 48.7752 55.4233C48.7562 55.4273 48.7387 55.4365 48.7245 55.4497C48.7103 55.4629 48.6999 55.4798 48.6946 55.4985C48.6892 55.5171 48.689 55.5369 48.694 55.5557C48.8534 56.1674 48.6636 56.7674 48.1597 57.1377C47.6206 57.5314 47.1143 57.5174 46.2987 57.2197C46.2143 57.1893 46.1323 57.2502 46.1276 57.3393C46.1089 57.7143 45.8136 58.0025 45.6401 58.1713C44.8784 58.9166 43.5612 58.408 42.4597 57.8807C40.2964 56.8471 37.3972 54.6697 35.3182 53.4791C32.8784 52.0822 27.0987 49.0002 27.3331 46.4244C27.4386 45.2572 28.9175 42.0791 30.6565 41.4299" fill="#FAC036"/>
<mask id="mask0_3356_1322" style="mask-type:luminance" maskUnits="userSpaceOnUse" x="27" y="41" width="27" height="18">
<path d="M30.6565 41.4299C32.5362 40.8533 34.1745 42.6463 35.5292 42.2197C37.5097 41.5939 38.6581 41.4674 40.7768 42.1236C42.912 42.7869 45.4034 44.6197 47.2151 45.8877C48.8112 47.0057 50.8831 48.8244 52.2612 50.226C53.1542 51.1353 53.1307 51.7611 52.955 52.2299C52.7276 52.8346 52.0737 53.158 51.2698 53.1275C51.1854 53.1252 51.1198 53.2025 51.1503 53.2822C51.4339 54.0721 51.1714 54.7494 50.7893 55.0869C50.2222 55.5861 49.5729 55.6916 48.8323 55.4268C48.8139 55.4204 48.7942 55.4192 48.7752 55.4233C48.7562 55.4273 48.7387 55.4365 48.7245 55.4497C48.7103 55.4629 48.6999 55.4798 48.6946 55.4985C48.6892 55.5171 48.689 55.5369 48.694 55.5557C48.8534 56.1674 48.6636 56.7674 48.1597 57.1377C47.6206 57.5314 47.1143 57.5174 46.2987 57.2197C46.2143 57.1893 46.1323 57.2502 46.1276 57.3393C46.1089 57.7143 45.8136 58.0025 45.6401 58.1713C44.8784 58.9166 43.5612 58.408 42.4597 57.8807C40.2964 56.8471 37.3972 54.6697 35.3182 53.4791C32.8784 52.0822 27.0987 49.0002 27.3331 46.4244C27.4386 45.2572 28.9175 42.0791 30.6565 41.4299" fill="white"/>
</mask>
<g mask="url(#mask0_3356_1322)">
<path d="M51.1693 49.1309C51.549 49.5598 51.6826 50.4762 51.2583 51.0996C50.799 51.7746 50.1146 51.7301 49.9294 51.9152C49.7419 52.1027 49.9388 52.7707 49.2661 53.3707C48.5302 54.0246 47.7615 53.6988 47.5083 53.8981C47.3021 54.0598 47.5458 54.716 46.6505 55.3465C45.7271 55.9981 44.9138 55.7168 44.7685 55.8457C44.5482 56.0426 44.8341 56.3543 43.9622 57.1207C43.088 57.8871 41.1638 56.7363 40.6529 56.5488C40.5099 56.4973 40.1115 56.7246 40.149 56.8723C40.1677 56.9449 43.9201 59.3098 45.2419 59.3379C46.6294 59.366 48.0568 59.2277 49.299 58.6043C49.7724 58.3676 50.2083 58.0652 50.6279 57.7442C51.6826 56.9356 52.6599 55.9652 53.1802 54.7418C53.5576 53.8582 53.6747 52.8856 53.7263 51.9246C53.7685 51.1488 53.7193 50.2582 53.1146 49.7707C52.6294 49.3793 51.7458 49.1027 51.1693 49.1309Z" fill="#E48C15"/>
</g>
<path d="M51.8628 50.6417C52.9269 49.9315 55.5027 48.5135 56.1636 46.7393C56.6089 45.544 55.3738 44.5526 54.7199 43.7651C53.8738 42.7502 52.3222 41.9674 51.087 42.2651C50.3488 42.4432 48.7574 43.0151 47.7495 42.9846C46.5214 42.9448 45.8699 42.9002 45.0613 42.776C44.4285 42.6799 43.5027 42.7971 42.3425 43.1627C41.173 43.5307 40.2308 43.9549 39.0542 44.719C38.5902 45.0213 38.03 45.5299 37.7253 46.0315C37.2636 46.7909 37.8589 47.9862 39.0074 48.1385C40.4886 48.3354 42.0472 46.7276 43.7183 46.0315C44.2128 45.8252 44.7402 45.5346 45.3988 45.5909C46.1347 45.6565 49.28 48.1643 51.8628 50.6417" fill="#E48C15"/>
<path d="M51.8628 50.6417C52.9269 49.9315 55.5027 48.5135 56.1636 46.7393C56.6089 45.544 55.3738 44.5526 54.7199 43.7651C53.8738 42.7502 52.3222 41.9674 51.087 42.2651C50.3488 42.4432 48.7574 43.0151 47.7495 42.9846C46.5214 42.9448 45.8699 42.9002 45.0613 42.776C44.4285 42.6799 43.5027 42.7971 42.3425 43.1627C41.173 43.5307 40.2308 43.9549 39.0542 44.719C38.5902 45.0213 38.03 45.5299 37.7253 46.0315C37.2636 46.7909 37.8589 47.9862 39.0074 48.1385C40.4886 48.3354 42.0472 46.7276 43.7183 46.0315C44.2128 45.8252 44.7402 45.5346 45.3988 45.5909C46.1347 45.6565 49.28 48.1643 51.8628 50.6417" stroke="#E48C15" stroke-width="4" stroke-miterlimit="10"/>
<path d="M42.7484 55.0945C42.7484 55.0945 42.7391 56.2055 42.5891 56.5805C42.4391 56.9555 42.3359 57.4125 42.0852 57.6938L42.4859 57.893C43.1375 56.9859 43.2828 56.6789 43.2828 56.0695C43.2805 55.4016 42.7484 55.0945 42.7484 55.0945ZM34.7445 51.1289C34.7445 51.1289 35.1266 51.75 34.9766 52.125C34.8266 52.5 34.7469 52.882 34.4961 53.1633C34.4961 53.1633 34.5875 53.0648 34.707 53.1328C34.8219 53.1984 34.7492 53.3344 34.7492 53.3344L35.1102 52.9266C35.3234 52.657 35.3375 52.2328 35.2391 51.8602C35.1125 51.3773 34.7445 51.1289 34.7445 51.1289ZM37.5055 52.1297C37.5055 52.1297 37.5922 53.2641 37.4445 53.6391C37.2945 54.0141 37.2148 54.3961 36.9641 54.6773C36.9641 54.6773 37.1094 54.6023 37.2266 54.668C37.3414 54.7336 37.2781 54.9164 37.2781 54.9164L37.7984 54.307C38.0117 54.0375 38.0961 53.5383 38.0562 53.0953C38 52.4719 37.5055 52.1297 37.5055 52.1297ZM40.6672 53.2547C40.6672 53.2547 40.1633 54.9516 40.0133 55.3266C39.8633 55.7016 39.793 56.093 39.5422 56.3742C39.5422 56.3742 39.6828 56.2852 39.8 56.3508C39.9148 56.4164 39.8492 56.6039 39.8492 56.6039L40.482 55.868C40.6953 55.5984 41.1453 54.8977 41.143 54.1898C41.1383 53.5219 40.6672 53.2547 40.6672 53.2547Z" fill="#E48C15"/>
<path d="M42.7983 57.3483C41.971 58.2108 41.16 58.7804 40.41 58.0585C39.6718 57.3507 40.1944 56.5069 41.0218 55.6421C41.8491 54.7772 42.8194 54.21 43.4874 54.8522C44.1671 55.5061 43.6257 56.4858 42.7983 57.3483Z" fill="#E48C15"/>
<path d="M42.7983 57.3483C41.971 58.2108 41.16 58.7804 40.41 58.0585C39.6718 57.3507 40.1944 56.5069 41.0218 55.6421C41.8491 54.7772 42.8194 54.21 43.4874 54.8522C44.1671 55.5061 43.6257 56.4858 42.7983 57.3483Z" stroke="#E48C15" stroke-width="2" stroke-miterlimit="10"/>
<path d="M40.2956 55.9062C39.0932 57.282 38.2659 57.7156 37.4362 56.921C36.6206 56.1382 37.3378 55.1421 38.3315 54.0218C39.5925 52.6038 40.5487 52.2007 41.287 52.9062C42.0393 53.6304 41.5753 54.4413 40.2956 55.9062" fill="#E48C15"/>
<path d="M40.2956 55.9062C39.0932 57.282 38.2659 57.7156 37.4362 56.921C36.6206 56.1382 37.3378 55.1421 38.3315 54.0218C39.5925 52.6038 40.5487 52.2007 41.287 52.9062C42.0393 53.6304 41.5753 54.4413 40.2956 55.9062" stroke="#E48C15" stroke-width="2" stroke-miterlimit="10"/>
<path d="M37.3585 54.5281C36.4491 55.4703 35.5725 56.1008 34.7827 55.3414C34.0069 54.5984 34.621 53.7148 35.4905 52.7351C36.4421 51.6594 37.4475 51.1601 38.1507 51.8328C38.8655 52.5195 38.4647 53.382 37.3585 54.5281Z" fill="#E48C15"/>
<path d="M37.3585 54.5281C36.4491 55.4703 35.5725 56.1008 34.7827 55.3414C34.0069 54.5984 34.621 53.7148 35.4905 52.7351C36.4421 51.6594 37.4475 51.1601 38.1507 51.8328C38.8655 52.5195 38.4647 53.382 37.3585 54.5281Z" stroke="#E48C15" stroke-width="2" stroke-miterlimit="10"/>
<path d="M34.7931 53.0617C34.0665 53.8187 33.3376 54.2968 32.5689 53.5586C31.8142 52.8343 32.2478 52.0726 32.9743 51.3156C33.7009 50.5586 34.5821 50.0921 35.2665 50.7484C35.9626 51.4164 35.5196 52.3046 34.7931 53.0617" fill="#E48C15"/>
<path d="M34.7931 53.0617C34.0665 53.8187 33.3376 54.2968 32.5689 53.5586C31.8142 52.8343 32.2478 52.0726 32.9743 51.3156C33.7009 50.5586 34.5821 50.0921 35.2665 50.7484C35.9626 51.4164 35.5196 52.3046 34.7931 53.0617" stroke="#E48C15" stroke-width="2" stroke-miterlimit="10"/>
<path d="M52.1265 50.0966C53.2257 49.363 55.8929 47.8958 56.5749 46.0583C57.0343 44.8231 55.7593 43.7966 55.0819 42.981C54.2077 41.931 52.6022 41.12 51.3225 41.4271C50.5585 41.6099 48.9132 42.2028 47.8679 42.17C46.5952 42.1302 45.9249 42.0833 45.0882 41.9544C44.4319 41.8536 43.4757 41.9755 42.2757 42.3528C41.0663 42.7325 40.0913 43.1708 38.8749 43.963C38.3968 44.2747 37.8155 44.8021 37.5015 45.3224C37.0257 46.1099 37.6397 47.345 38.828 47.5021C40.3608 47.706 41.9733 46.0419 43.7007 45.3224C44.2116 45.1091 44.7577 44.8091 45.4374 44.8677C46.2015 44.9403 49.4546 47.5325 52.1265 50.0966" fill="#FAC036"/>
<path d="M42.1524 57.6211C41.3368 58.4695 40.5423 59.0297 39.804 58.3195C39.0798 57.6234 39.5907 56.7938 40.4064 55.943C41.222 55.0945 42.1735 54.5344 42.8298 55.1649C43.5001 55.8094 42.9681 56.7727 42.1524 57.6211" fill="#FAC036"/>
<path d="M39.6921 56.2036C38.5085 57.556 37.6952 57.9849 36.8796 57.2021C36.078 56.4333 36.7812 55.4513 37.7609 54.3521C39.0007 52.9575 39.9429 52.5591 40.6671 53.2552C41.4054 53.9653 40.9507 54.7646 39.6921 56.2036" fill="#FAC036"/>
<path d="M36.8021 54.8463C35.9068 55.772 35.0443 56.3908 34.2685 55.6478C33.5068 54.9166 34.1092 54.047 34.9646 53.0838C35.9021 52.0267 36.8889 51.5345 37.5803 52.1978C38.2857 52.8728 37.892 53.7213 36.8021 54.8463Z" fill="#FAC036"/>
<path d="M34.2792 53.4051C33.5644 54.1504 32.8472 54.6192 32.0902 53.895C31.3472 53.1825 31.7738 52.4325 32.4886 51.6895C33.2035 50.9442 34.0707 50.4872 34.7433 51.1317C35.43 51.7879 34.9941 52.6598 34.2792 53.4051" fill="#FAC036"/>
</g>
</g>
<defs>
<clipPath id="clip0_3356_1322">
<rect width="240" height="177" fill="white"/>
</clipPath>
<clipPath id="clip1_3356_1322">
<rect width="30" height="30" fill="white" transform="translate(27 35)"/>
</clipPath>
</defs>
</svg>
