<svg width="240" height="177" viewBox="0 0 240 177" fill="none" xmlns="http://www.w3.org/2000/svg">
<g clip-path="url(#clip0_3356_1338)">
<path d="M228 0H12C5.37258 0 0 5.37258 0 12V165C0 171.627 5.37258 177 12 177H228C234.627 177 240 171.627 240 165V12C240 5.37258 234.627 0 228 0Z" fill="#FDA9BB"/>
<path d="M42 75C55.2548 75 66 63.8071 66 50C66 36.1929 55.2548 25 42 25C28.7452 25 18 36.1929 18 50C18 63.8071 28.7452 75 42 75Z" fill="white"/>
<path d="M49.8873 54.1868C49.0277 53.3166 47.8171 52.8752 46.2899 52.8752H45.2166C45.2017 52.8752 45.1873 52.8697 45.176 52.8599C45.1648 52.8502 45.1574 52.8367 45.1553 52.8219L45.0868 52.4134C47.5117 51.2183 49.2099 48.5201 49.2099 45.3859C49.2099 41.1472 46.1095 37.6992 42.2984 37.6992C38.4873 37.6992 35.3873 41.1472 35.3873 45.3859C35.3873 48.5197 37.0842 51.217 39.5077 52.4126L39.4393 52.8228C39.437 52.8374 39.4295 52.8507 39.4183 52.8603C39.407 52.8699 39.3927 52.8752 39.3779 52.8752H38.3046C36.7775 52.8752 35.5668 53.3166 34.7073 54.1868C33.4433 55.4659 33.2753 57.3601 33.2877 58.3703V60.6286C33.2877 60.7464 33.3345 60.8595 33.4179 60.9428C33.5012 61.0262 33.6143 61.073 33.7322 61.073H50.8624C50.9803 61.073 51.0933 61.0262 51.1767 60.9428C51.26 60.8595 51.3068 60.7464 51.3068 60.6286V58.3752C51.3193 57.3606 51.1513 55.4659 49.8873 54.1868Z" fill="#FF758A"/>
<path d="M42.2972 42.4868C45.7012 42.4868 48.5656 43.121 49.1327 46.729C49.2052 46.2849 49.2421 45.8358 49.243 45.3859C49.243 41.1472 46.143 37.6992 42.3318 37.6992C38.5207 37.6992 35.4198 41.1472 35.4198 45.3859C35.4207 45.8358 35.4576 46.2849 35.5301 46.729C36.0972 43.121 38.8923 42.4868 42.2963 42.4868M49.8821 54.3303C49.8718 54.275 49.8554 54.2211 49.8332 54.1694C49.8175 54.1422 49.7991 54.1168 49.7781 54.0934C49.7677 54.0772 49.7563 54.0616 49.7438 54.0468L49.7132 54.0214L49.7087 54.0174C48.7537 53.2212 47.5341 52.8135 46.2923 52.8752H45.2581C45.2238 52.8781 45.1899 52.885 45.1572 52.8957C45.1447 52.8988 45.1323 52.8988 45.1203 52.9028C45.0753 52.9185 45.0331 52.9413 44.9954 52.9703C44.9883 52.9757 44.9803 52.9792 44.9732 52.985C44.9418 53.013 44.9146 53.0453 44.8923 53.081C44.8597 53.1209 44.8393 53.1693 44.8336 53.2206C44.8264 53.239 44.8205 53.2578 44.8158 53.277C44.8136 53.2961 44.5954 55.1326 42.3207 57.4517C40.0461 55.1281 39.8247 53.3023 39.823 53.2797C39.8182 53.258 39.8118 53.2368 39.8038 53.2161C39.798 53.1859 39.7891 53.1564 39.7772 53.1281C39.7651 53.1066 39.7513 53.086 39.7358 53.0668C39.7179 53.0394 39.6971 53.014 39.6736 52.9912C39.6559 52.9772 39.6372 52.9646 39.6176 52.9534C39.5692 52.9159 39.5107 52.8935 39.4496 52.889C39.4269 52.8826 39.4037 52.878 39.3803 52.8752H38.307C37.0657 52.8134 35.8465 53.2197 34.8905 54.0139C34.8758 54.0309 34.8625 54.049 34.8505 54.0681C34.8315 54.0888 34.8146 54.1113 34.7998 54.1352C34.7779 54.1873 34.7609 54.2413 34.7492 54.2966C34.7469 54.3286 34.7481 54.3608 34.7527 54.3926C34.7523 54.4124 34.7532 54.4323 34.7554 54.4521C35.4669 57.0956 37.0811 59.4068 39.3181 60.985C39.3946 61.042 39.4875 61.0729 39.583 61.073H45.6803C45.7771 61.0731 45.8714 61.0415 45.9486 60.9831C46.0259 60.9247 46.0819 60.8426 46.1083 60.7494C46.1239 60.6903 46.1271 60.6286 46.1178 60.5682C46.1085 60.5078 46.0868 60.45 46.0541 60.3983C47.9126 58.8719 49.2486 56.8037 49.8758 54.4819C49.8781 54.4617 49.879 54.4413 49.8785 54.421C49.8829 54.391 49.8838 54.3606 49.8821 54.3303Z" fill="black"/>
<path d="M33.889 53.9926C33.9284 54.0585 33.9841 54.1131 34.0509 54.151C34.1176 54.189 34.1931 54.2089 34.2699 54.2091C34.3012 54.209 34.3325 54.2055 34.3632 54.1988C34.4539 54.1793 34.5362 54.132 34.5986 54.0633C34.661 53.9947 34.7004 53.9083 34.7112 53.8162L35.0525 50.8979C35.0657 50.7852 35.0352 50.6717 34.9674 50.5807C34.8995 50.4897 34.7994 50.4282 34.6876 50.4086L32.3543 50.0019C32.3463 50.0006 32.3388 50.0024 32.3308 50.0015C32.3442 49.9706 32.354 49.9382 32.3601 49.9051L32.9921 45.4446C33.004 45.3608 32.9918 45.2753 32.9568 45.1982C32.9217 45.1211 32.8654 45.0556 32.7945 45.0094C32.7235 44.9632 32.6408 44.9383 32.5561 44.9375C32.4715 44.9367 32.3883 44.9602 32.3165 45.0051L29.9121 46.5055C29.8133 46.5672 29.7427 46.6652 29.7155 46.7784C29.6882 46.8916 29.7065 47.0109 29.7663 47.1108L33.889 53.9926Z" fill="#FF758A"/>
<path d="M37.8826 53.1166L32.9283 45.1477C32.8797 45.0694 32.808 45.0081 32.723 44.9723C32.6381 44.9365 32.5441 44.9281 32.4541 44.9481C32.3641 44.9681 32.2826 45.0156 32.2208 45.084C32.159 45.1525 32.12 45.2384 32.1092 45.3299L31.5617 49.9299C31.5484 50.0426 31.5786 50.1561 31.6463 50.2472C31.714 50.3382 31.8139 50.4 31.9257 50.4197L34.6137 50.8931L34.2052 54.3259C34.1918 54.4387 34.222 54.5523 34.2897 54.6435C34.3574 54.7346 34.4574 54.7964 34.5692 54.8162C35.4391 53.8772 36.6124 53.2753 37.8826 53.1166Z" fill="#D0CFCE"/>
<path d="M48.3489 44.1233C47.3036 42.8571 45.2658 42.2148 42.292 42.2148C39.4565 42.2148 37.4649 42.8415 36.3742 44.078C36.0897 44.3884 35.8697 44.7523 35.727 45.1485C35.5843 45.5447 35.5218 45.9654 35.5431 46.386C35.6271 47.1479 35.8173 47.8944 36.108 48.6037L36.1365 48.65L36.0507 48.722L36.1538 48.6793C36.1695 48.6972 36.1866 48.7139 36.2049 48.7291L36.228 48.7504C36.2498 48.7636 36.2727 48.7749 36.2965 48.7842L36.268 48.8931L36.3231 48.7966C36.3485 48.8033 36.3743 48.8078 36.4005 48.81L36.42 48.8095C36.454 48.8095 36.4878 48.804 36.52 48.7931C36.5551 48.782 40.1298 47.6273 42.292 47.6273C44.7778 47.6273 48.108 48.6135 48.1414 48.6233C48.2235 48.6477 48.312 48.6396 48.3883 48.6005C48.4646 48.5614 48.5229 48.4945 48.5511 48.4135L48.5742 48.3606C48.8098 47.7244 48.9665 47.0616 49.0409 46.3873V46.3802C49.086 45.9767 49.0479 45.5682 48.9289 45.18C48.8098 44.7918 48.6125 44.4322 48.3489 44.1233Z" fill="#C19A65"/>
<path d="M34.8336 54.7068L30.1465 46.8824L32.5509 45.3828L37.5158 53.3659" stroke="black" stroke-width="2" stroke-linecap="round" stroke-linejoin="round"/>
<path d="M32.3141 47.373L32.0039 49.9833L35.8355 50.6642M34.9204 52.0562L34.6435 54.3819" stroke="black" stroke-width="2" stroke-linecap="round" stroke-linejoin="round"/>
<path d="M44.9974 45.0862C44.9974 45.262 44.9453 45.4338 44.8476 45.58C44.7499 45.7262 44.6111 45.8401 44.4487 45.9074C44.2862 45.9747 44.1075 45.9923 43.9351 45.958C43.7627 45.9237 43.6043 45.839 43.48 45.7147C43.3557 45.5904 43.271 45.432 43.2367 45.2596C43.2024 45.0871 43.22 44.9084 43.2873 44.746C43.3546 44.5836 43.4685 44.4447 43.6147 44.3471C43.7608 44.2494 43.9327 44.1973 44.1085 44.1973C44.3443 44.1973 44.5703 44.2909 44.737 44.4576C44.9037 44.6243 44.9974 44.8504 44.9974 45.0862ZM41.4418 45.0862C41.4418 45.262 41.3897 45.4338 41.292 45.58C41.1944 45.7262 41.0555 45.8401 40.8931 45.9074C40.7307 45.9747 40.552 45.9923 40.3795 45.958C40.2071 45.9237 40.0487 45.839 39.9244 45.7147C39.8001 45.5904 39.7154 45.432 39.6811 45.2596C39.6468 45.0871 39.6644 44.9084 39.7317 44.746C39.799 44.5836 39.9129 44.4447 40.0591 44.3471C40.2053 44.2494 40.3771 44.1973 40.553 44.1973C40.7887 44.1973 41.0148 44.2909 41.1815 44.4576C41.3482 44.6243 41.4418 44.8504 41.4418 45.0862Z" fill="black"/>
<path d="M33.7311 60.6298V58.3711C33.7115 56.7555 34.1577 53.32 38.3035 53.32H39.3768C39.4968 53.32 39.613 53.2775 39.7045 53.1999C39.7961 53.1223 39.8572 53.0148 39.8768 52.8964L39.9999 52.1582M50.8617 60.6298V58.3711C50.8813 56.7555 50.4351 53.32 46.2893 53.32H45.2159C45.0959 53.32 44.9798 53.2775 44.8883 53.1999C44.7967 53.1223 44.7356 53.0148 44.7159 52.8964L44.5928 52.1582" stroke="black" stroke-width="2" stroke-linecap="round" stroke-linejoin="round"/>
<path d="M42.2972 52.629C45.8689 52.629 48.7643 49.3865 48.7643 45.3868C48.7643 41.387 45.8689 38.1445 42.2972 38.1445C38.7255 38.1445 35.8301 41.387 35.8301 45.3868C35.8301 49.3865 38.7255 52.629 42.2972 52.629Z" stroke="black" stroke-width="2" stroke-linecap="round" stroke-linejoin="round"/>
<path d="M36.4218 48.4163C36.4218 48.4163 40.0645 47.2341 42.2974 47.2341C44.8538 47.2341 48.2414 48.2443 48.2414 48.2443M35.88 46.2905C35.88 46.2905 35.4045 42.4883 42.2974 42.4883C49.4471 42.4883 48.7134 46.2905 48.7134 46.2905M39.3765 53.3207C39.3765 53.3207 39.7067 56.9754 45.676 60.6301M35.1836 54.3474C35.5303 55.7594 36.5574 58.3803 39.5791 60.6305" stroke="black" stroke-width="2" stroke-linecap="round" stroke-linejoin="round"/>
<path d="M45.2527 53.3203C45.2527 53.3203 45.0607 55.4501 42.3145 58.0834M49.4393 54.375C48.7843 56.7913 47.3377 58.9181 45.3309 60.415" stroke="black" stroke-width="2" stroke-linecap="round" stroke-linejoin="round"/>
<path d="M19.5 109C19.2067 109 19.06 108.907 19.06 108.72V108.66C19.06 108.54 19.1867 108.367 19.44 108.14C19.6933 107.9 19.82 107.633 19.82 107.34V96.46C19.82 96.1667 19.6933 95.9067 19.44 95.68C19.1867 95.44 19.06 95.26 19.06 95.14V95.08C19.06 94.8933 19.2067 94.8 19.5 94.8H23.9C26.3533 94.8 28.3667 95.4733 29.94 96.82C31.5267 98.1533 32.32 99.8267 32.32 101.84C32.32 104.013 31.6133 105.753 30.2 107.06C28.8 108.353 27 109 24.8 109H19.5ZM23.4 107.98H24.66C26.18 107.98 27.42 107.507 28.38 106.56C29.3533 105.613 29.84 104.34 29.84 102.74C29.84 100.753 29.2267 99.1067 28 97.8C26.7733 96.48 25.2533 95.82 23.44 95.82H22.88C22.4267 95.82 22.2 96.0667 22.2 96.56V106.56C22.2 107.013 22.3067 107.367 22.52 107.62C22.7333 107.86 23.0267 107.98 23.4 107.98ZM41.76 106.06C41.8667 105.913 42 105.86 42.16 105.9C42.3333 105.94 42.4133 106.06 42.4 106.26C42.2933 106.967 41.88 107.633 41.16 108.26C40.44 108.887 39.5 109.2 38.34 109.2C36.98 109.2 35.8467 108.733 34.94 107.8C34.0467 106.867 33.6 105.64 33.6 104.12C33.6 102.707 34.06 101.533 34.98 100.6C35.9133 99.6667 37.0467 99.2 38.38 99.2C39.58 99.2 40.5 99.5 41.14 100.1C41.7933 100.687 42.12 101.367 42.12 102.14C42.12 102.833 41.78 103.3 41.1 103.54L36.26 105.32C36.5133 106.013 36.8933 106.553 37.4 106.94C37.9067 107.327 38.5067 107.52 39.2 107.52C39.8 107.52 40.32 107.387 40.76 107.12C41.2133 106.84 41.5467 106.487 41.76 106.06ZM37.98 99.96C37.3533 99.96 36.8533 100.26 36.48 100.86C36.1067 101.46 35.92 102.247 35.92 103.22C35.92 103.673 35.96 104.1 36.04 104.5L39.36 103.06C39.7067 102.9 39.88 102.62 39.88 102.22C39.88 101.74 39.6933 101.247 39.32 100.74C38.96 100.22 38.5133 99.96 37.98 99.96ZM47.6033 109.18C46.3633 109.18 45.3566 108.947 44.5833 108.48C43.8099 108 43.4233 107.467 43.4233 106.88C43.4233 106.587 43.5099 106.36 43.6833 106.2C43.8699 106.04 44.1166 105.96 44.4233 105.96C44.6899 105.96 44.9099 106.047 45.0833 106.22C45.2699 106.393 45.4166 106.607 45.5233 106.86C45.6299 107.113 45.7499 107.367 45.8833 107.62C46.0299 107.86 46.2433 108.067 46.5233 108.24C46.8166 108.413 47.1766 108.5 47.6033 108.5C48.1499 108.5 48.5899 108.367 48.9233 108.1C49.2699 107.833 49.4433 107.453 49.4433 106.96C49.4433 106.467 49.2433 106.087 48.8433 105.82C48.4433 105.54 47.9566 105.333 47.3833 105.2C46.8233 105.067 46.2566 104.913 45.6833 104.74C45.1099 104.567 44.6233 104.26 44.2233 103.82C43.8233 103.367 43.6233 102.773 43.6233 102.04C43.6233 101.227 43.9899 100.553 44.7233 100.02C45.4566 99.4733 46.3966 99.2 47.5433 99.2C48.7299 99.2 49.6899 99.4467 50.4233 99.94C51.1699 100.42 51.5433 100.967 51.5433 101.58C51.5433 101.833 51.4566 102.04 51.2833 102.2C51.1099 102.36 50.8899 102.44 50.6233 102.44C50.3699 102.44 50.1566 102.353 49.9833 102.18C49.8233 102.007 49.6833 101.8 49.5633 101.56C49.4566 101.307 49.3366 101.06 49.2033 100.82C49.0833 100.567 48.8899 100.353 48.6233 100.18C48.3699 100.007 48.0499 99.92 47.6633 99.92C47.1833 99.92 46.7833 100.067 46.4633 100.36C46.1433 100.653 45.9833 101.02 45.9833 101.46C45.9833 101.953 46.1833 102.34 46.5833 102.62C46.9833 102.9 47.4633 103.113 48.0233 103.26C48.5966 103.393 49.1699 103.547 49.7433 103.72C50.3166 103.893 50.8033 104.2 51.2033 104.64C51.6033 105.08 51.8033 105.667 51.8033 106.4C51.8033 107.2 51.4166 107.867 50.6433 108.4C49.8833 108.92 48.8699 109.18 47.6033 109.18ZM67.0933 107.3C67.1199 107.593 67.2466 107.86 67.4733 108.1C67.6999 108.327 67.8133 108.507 67.8133 108.64V108.72C67.8133 108.907 67.6733 109 67.3933 109H64.4533C64.1733 109 64.0333 108.907 64.0333 108.72V108.64C64.0333 108.52 64.1533 108.347 64.3933 108.12C64.6466 107.88 64.7666 107.613 64.7533 107.32L64.5533 103.36C64.4599 101.227 63.7599 100.16 62.4533 100.16C61.8266 100.16 61.3199 100.393 60.9333 100.86C60.5466 101.313 60.3533 101.907 60.3533 102.64V107.34C60.3533 107.62 60.4866 107.88 60.7533 108.12C61.0333 108.347 61.1733 108.52 61.1733 108.64V108.7C61.1733 108.9 61.0266 109 60.7333 109H57.6333C57.3533 109 57.2133 108.9 57.2133 108.7V108.64C57.2133 108.52 57.2799 108.407 57.4133 108.3C57.5466 108.18 57.6799 108.047 57.8133 107.9C57.9466 107.753 58.0133 107.567 58.0133 107.34V96.72C58.0133 96.48 57.9399 96.28 57.7933 96.12C57.6599 95.96 57.5199 95.8333 57.3733 95.74C57.2399 95.6333 57.1733 95.5267 57.1733 95.42V95.36C57.1733 95.1867 57.2866 95.0467 57.5133 94.94L59.6533 94C60.0799 93.8133 60.2933 93.92 60.2933 94.32L60.2733 100.54C60.9133 99.6467 61.8466 99.2 63.0733 99.2C64.0999 99.2 64.9666 99.5467 65.6733 100.24C66.3799 100.933 66.7733 101.993 66.8533 103.42L67.0933 107.3ZM77.5344 107.2C77.561 107.493 77.6344 107.727 77.7544 107.9C77.8877 108.06 78.0144 108.16 78.1344 108.2C78.2677 108.24 78.381 108.293 78.4744 108.36C78.581 108.427 78.6344 108.513 78.6344 108.62C78.6344 108.953 78.0944 109.12 77.0144 109.12C76.481 109.12 76.0877 109.04 75.8344 108.88C75.5944 108.707 75.4544 108.387 75.4144 107.92C74.881 108.773 73.9544 109.2 72.6344 109.2C71.5144 109.2 70.6077 108.94 69.9144 108.42C69.2344 107.887 68.8944 107.14 68.8944 106.18C68.881 105.233 69.221 104.5 69.9144 103.98C70.6077 103.447 71.481 103.18 72.5344 103.18C73.4944 103.18 74.2677 103.407 74.8544 103.86L74.8144 103.46C74.6944 102.233 74.481 101.34 74.1744 100.78C73.8677 100.22 73.381 99.94 72.7144 99.94C72.301 99.94 71.9544 100.067 71.6744 100.32C71.4077 100.573 71.221 100.853 71.1144 101.16C71.021 101.453 70.881 101.727 70.6944 101.98C70.5077 102.233 70.2744 102.36 69.9944 102.36C69.701 102.36 69.461 102.28 69.2744 102.12C69.101 101.947 69.0144 101.72 69.0144 101.44C69.0144 100.8 69.361 100.267 70.0544 99.84C70.761 99.4133 71.6477 99.2 72.7144 99.2C73.9677 99.2 74.981 99.5733 75.7544 100.32C76.5277 101.053 76.9877 102.067 77.1344 103.36L77.5344 107.2ZM73.2944 108.44C73.841 108.44 74.281 108.24 74.6144 107.84C74.961 107.44 75.121 106.967 75.0944 106.42L75.0344 105.8C74.9944 105.227 74.801 104.773 74.4544 104.44C74.1077 104.107 73.6677 103.94 73.1344 103.94C72.5744 103.94 72.121 104.12 71.7744 104.48C71.4277 104.827 71.2544 105.3 71.2544 105.9C71.2544 106.607 71.441 107.207 71.8144 107.7C72.201 108.193 72.6944 108.44 73.2944 108.44ZM84.1269 109.2C82.6869 109.2 81.4669 108.713 80.4669 107.74C79.4802 106.753 78.9869 105.56 78.9869 104.16C78.9869 102.68 79.4735 101.487 80.4469 100.58C81.4202 99.6733 82.6135 99.2133 84.0269 99.2C85.1202 99.1867 86.0602 99.4533 86.8469 100C87.6469 100.533 88.0469 101.147 88.0469 101.84C88.0469 102.093 87.9602 102.307 87.7869 102.48C87.6269 102.64 87.3735 102.713 87.0269 102.7C86.7069 102.687 86.4202 102.533 86.1669 102.24C85.9135 101.947 85.7069 101.633 85.5469 101.3C85.3869 100.967 85.1402 100.66 84.8069 100.38C84.4869 100.1 84.1002 99.96 83.6469 99.96C82.9669 99.96 82.4135 100.253 81.9869 100.84C81.5602 101.427 81.3469 102.16 81.3469 103.04C81.3469 104.4 81.6735 105.493 82.3269 106.32C82.9802 107.133 83.8402 107.54 84.9069 107.54C86.0669 107.54 86.9269 106.993 87.4869 105.9C87.5935 105.74 87.7335 105.68 87.9069 105.72C88.0802 105.76 88.1535 105.88 88.1269 106.08C88.0202 106.933 87.6135 107.667 86.9069 108.28C86.2135 108.893 85.2869 109.2 84.1269 109.2ZM98.765 107.68C98.8583 107.8 99.0517 107.953 99.345 108.14C99.6383 108.327 99.785 108.5 99.785 108.66V108.72C99.785 108.907 99.665 109 99.425 109H96.205C95.9783 109 95.865 108.9 95.865 108.7V108.66C95.865 108.54 95.9583 108.393 96.145 108.22C96.345 108.033 96.3783 107.853 96.245 107.68L93.685 104.26L92.325 105.52V107.34C92.325 107.62 92.4583 107.88 92.725 108.12C93.005 108.347 93.145 108.52 93.145 108.64V108.7C93.145 108.9 92.9983 109 92.705 109H89.665C89.385 109 89.245 108.9 89.245 108.7V108.64C89.245 108.507 89.365 108.327 89.605 108.1C89.8583 107.873 89.985 107.62 89.985 107.34V96.8C89.985 96.48 89.845 96.1933 89.565 95.94C89.285 95.6867 89.145 95.52 89.145 95.44V95.38C89.145 95.2467 89.2583 95.1267 89.485 95.02L91.605 94.02C91.8317 93.9267 92.005 93.92 92.125 94C92.2583 94.0667 92.325 94.18 92.325 94.34V104.2L95.925 101.06C96.1383 100.873 96.1117 100.633 95.845 100.34C95.5917 100.033 95.465 99.84 95.465 99.76V99.7C95.465 99.5 95.585 99.4 95.825 99.4H98.385C98.6117 99.4 98.725 99.4933 98.725 99.68V99.74C98.725 99.8733 98.645 100 98.485 100.12C98.3383 100.24 98.125 100.387 97.845 100.56C97.565 100.72 97.3383 100.88 97.165 101.04L95.205 102.84L98.765 107.68ZM108.589 107.2C108.616 107.493 108.689 107.727 108.809 107.9C108.942 108.06 109.069 108.16 109.189 108.2C109.322 108.24 109.436 108.293 109.529 108.36C109.636 108.427 109.689 108.513 109.689 108.62C109.689 108.953 109.149 109.12 108.069 109.12C107.536 109.12 107.142 109.04 106.889 108.88C106.649 108.707 106.509 108.387 106.469 107.92C105.936 108.773 105.009 109.2 103.689 109.2C102.569 109.2 101.662 108.94 100.969 108.42C100.289 107.887 99.9491 107.14 99.9491 106.18C99.9357 105.233 100.276 104.5 100.969 103.98C101.662 103.447 102.536 103.18 103.589 103.18C104.549 103.18 105.322 103.407 105.909 103.86L105.869 103.46C105.749 102.233 105.536 101.34 105.229 100.78C104.922 100.22 104.436 99.94 103.769 99.94C103.356 99.94 103.009 100.067 102.729 100.32C102.462 100.573 102.276 100.853 102.169 101.16C102.076 101.453 101.936 101.727 101.749 101.98C101.562 102.233 101.329 102.36 101.049 102.36C100.756 102.36 100.516 102.28 100.329 102.12C100.156 101.947 100.069 101.72 100.069 101.44C100.069 100.8 100.416 100.267 101.109 99.84C101.816 99.4133 102.702 99.2 103.769 99.2C105.022 99.2 106.036 99.5733 106.809 100.32C107.582 101.053 108.042 102.067 108.189 103.36L108.589 107.2ZM104.349 108.44C104.896 108.44 105.336 108.24 105.669 107.84C106.016 107.44 106.176 106.967 106.149 106.42L106.089 105.8C106.049 105.227 105.856 104.773 105.509 104.44C105.162 104.107 104.722 103.94 104.189 103.94C103.629 103.94 103.176 104.12 102.829 104.48C102.482 104.827 102.309 105.3 102.309 105.9C102.309 106.607 102.496 107.207 102.869 107.7C103.256 108.193 103.749 108.44 104.349 108.44ZM114.081 109.2C113.214 109.2 112.527 108.927 112.021 108.38C111.527 107.82 111.281 107.013 111.281 105.96V100.38H110.141C109.914 100.38 109.801 100.267 109.801 100.04V99.76C109.801 99.52 109.914 99.4 110.141 99.4H110.761C111.267 99.4 111.674 99.2267 111.981 98.88C112.301 98.5333 112.501 98.06 112.581 97.46C112.621 97.1667 112.754 97.02 112.981 97.02H113.281C113.534 97.02 113.661 97.1667 113.661 97.46L113.681 99.4H116.201C116.307 99.4 116.394 99.4333 116.461 99.5C116.527 99.5667 116.561 99.6533 116.561 99.76V100.04C116.561 100.267 116.441 100.38 116.201 100.38H113.681V105.98C113.681 106.447 113.787 106.813 114.001 107.08C114.214 107.333 114.487 107.46 114.821 107.46C115.621 107.46 116.094 107.113 116.241 106.42C116.294 106.313 116.374 106.247 116.481 106.22C116.587 106.193 116.681 106.207 116.761 106.26C116.854 106.313 116.901 106.4 116.901 106.52C116.901 107.24 116.641 107.867 116.121 108.4C115.614 108.933 114.934 109.2 114.081 109.2ZM123.004 109.2C121.364 109.2 120.051 108.7 119.064 107.7C118.077 106.7 117.584 105.5 117.584 104.1C117.584 102.7 118.064 101.533 119.024 100.6C119.984 99.6667 121.157 99.2 122.544 99.2C124.091 99.2 125.357 99.6933 126.344 100.68C127.331 101.653 127.824 102.847 127.824 104.26C127.824 105.66 127.377 106.833 126.484 107.78C125.591 108.727 124.431 109.2 123.004 109.2ZM123.304 108.44C123.944 108.44 124.464 108.147 124.864 107.56C125.264 106.96 125.464 106.133 125.464 105.08C125.464 103.667 125.157 102.46 124.544 101.46C123.944 100.46 123.191 99.96 122.284 99.96C121.564 99.96 120.991 100.253 120.564 100.84C120.151 101.413 119.944 102.24 119.944 103.32C119.944 104.627 120.257 105.807 120.884 106.86C121.524 107.913 122.331 108.44 123.304 108.44ZM139.089 107.32C139.103 107.613 139.223 107.88 139.449 108.12C139.689 108.347 139.809 108.52 139.809 108.64V108.72C139.809 108.92 139.663 109.02 139.369 109.02H136.449C136.156 109.02 136.009 108.92 136.009 108.72V108.64C136.009 108.52 136.129 108.347 136.369 108.12C136.623 107.88 136.743 107.613 136.729 107.32L136.529 103.46C136.436 101.26 135.736 100.16 134.429 100.16C133.803 100.16 133.296 100.393 132.909 100.86C132.523 101.313 132.329 101.907 132.329 102.64V107.34C132.329 107.633 132.463 107.893 132.729 108.12C133.009 108.347 133.149 108.52 133.149 108.64V108.72C133.149 108.92 133.003 109.02 132.709 109.02H129.609C129.329 109.02 129.189 108.92 129.189 108.72V108.64C129.189 108.52 129.323 108.347 129.589 108.12C129.856 107.893 129.989 107.633 129.989 107.34V101.98C129.989 101.727 129.909 101.52 129.749 101.36C129.603 101.2 129.456 101.073 129.309 100.98C129.163 100.873 129.089 100.76 129.089 100.64V100.58C129.089 100.447 129.209 100.327 129.449 100.22L131.389 99.28C131.603 99.1867 131.756 99.18 131.849 99.26C131.956 99.3267 132.009 99.4533 132.009 99.64V100.94C132.289 100.393 132.696 99.9667 133.229 99.66C133.763 99.3533 134.369 99.2 135.049 99.2C136.076 99.2 136.943 99.5533 137.649 100.26C138.356 100.967 138.756 102.06 138.849 103.54L139.089 107.32ZM144.947 109.18C143.707 109.18 142.7 108.947 141.927 108.48C141.154 108 140.767 107.467 140.767 106.88C140.767 106.587 140.854 106.36 141.027 106.2C141.214 106.04 141.46 105.96 141.767 105.96C142.034 105.96 142.254 106.047 142.427 106.22C142.614 106.393 142.76 106.607 142.867 106.86C142.974 107.113 143.094 107.367 143.227 107.62C143.374 107.86 143.587 108.067 143.867 108.24C144.16 108.413 144.52 108.5 144.947 108.5C145.494 108.5 145.934 108.367 146.267 108.1C146.614 107.833 146.787 107.453 146.787 106.96C146.787 106.467 146.587 106.087 146.187 105.82C145.787 105.54 145.3 105.333 144.727 105.2C144.167 105.067 143.6 104.913 143.027 104.74C142.454 104.567 141.967 104.26 141.567 103.82C141.167 103.367 140.967 102.773 140.967 102.04C140.967 101.227 141.334 100.553 142.067 100.02C142.8 99.4733 143.74 99.2 144.887 99.2C146.074 99.2 147.034 99.4467 147.767 99.94C148.514 100.42 148.887 100.967 148.887 101.58C148.887 101.833 148.8 102.04 148.627 102.2C148.454 102.36 148.234 102.44 147.967 102.44C147.714 102.44 147.5 102.353 147.327 102.18C147.167 102.007 147.027 101.8 146.907 101.56C146.8 101.307 146.68 101.06 146.547 100.82C146.427 100.567 146.234 100.353 145.967 100.18C145.714 100.007 145.394 99.92 145.007 99.92C144.527 99.92 144.127 100.067 143.807 100.36C143.487 100.653 143.327 101.02 143.327 101.46C143.327 101.953 143.527 102.34 143.927 102.62C144.327 102.9 144.807 103.113 145.367 103.26C145.94 103.393 146.514 103.547 147.087 103.72C147.66 103.893 148.147 104.2 148.547 104.64C148.947 105.08 149.147 105.667 149.147 106.4C149.147 107.2 148.76 107.867 147.987 108.4C147.227 108.92 146.214 109.18 144.947 109.18Z" fill="black"/>
</g>
<defs>
<clipPath id="clip0_3356_1338">
<rect width="240" height="177" fill="white"/>
</clipPath>
</defs>
</svg>
