<svg width="800" height="253" viewBox="0 0 800 253" fill="none" xmlns="http://www.w3.org/2000/svg">
<g clip-path="url(#clip0_3357_1475)">
<path d="M99.8603 33.7197H78.8286V3.08711C78.8286 1.12953 76.4191 0.199071 75.0994 1.64914L47.5657 31.8105C46.3065 33.188 47.2872 35.3873 49.1519 35.3873H70.1835V66.0199C70.1835 67.9775 72.593 68.908 73.9127 67.4578L101.434 37.2844C102.693 35.9069 101.713 33.7076 99.8482 33.7076L99.8603 33.7197Z" fill="#F49643"/>
</g>
<g clip-path="url(#clip1_3357_1475)">
<path d="M473.184 218.097H418.267C377.491 218.097 343.659 185.446 343.264 144.552C342.861 103.262 376.245 69.542 417.325 69.542H473.184C476.813 69.542 479.749 72.494 479.749 76.1279V101.689C479.749 105.331 476.805 108.275 473.184 108.275H417.92C398.52 108.275 382.264 123.67 381.893 143.126C381.515 163.031 397.555 179.349 417.325 179.349H473.184C476.813 179.349 479.749 182.301 479.749 185.934V211.496C479.749 215.137 476.805 218.081 473.184 218.081V218.097Z" fill="#2B3845"/>
<path d="M313.283 218.046H287.803C284.171 218.046 281.229 215.094 281.229 211.453V143.66C281.229 124.197 265.877 107.902 246.477 107.53C226.629 107.151 210.359 123.236 210.359 143.063V211.453C210.359 215.094 207.415 218.046 203.784 218.046H178.304C174.673 218.046 171.729 215.094 171.729 211.453V144.008C171.729 103.114 204.286 69.1849 245.063 68.7897C286.235 68.3868 319.859 101.867 319.859 143.063V211.453C319.859 215.094 316.915 218.046 313.283 218.046Z" fill="#2B3845"/>
<path d="M73.5427 219.006C32.7653 218.611 0.208328 184.674 0.208328 143.787V120.274C0.208328 116.633 3.15189 113.688 6.77535 113.688H32.2632C35.8941 113.688 38.8301 116.64 38.8301 120.274V144.136C38.8301 163.599 54.1813 179.894 73.5811 180.266C93.4291 180.645 109.7 164.56 109.7 144.733V120.336C109.7 116.695 112.643 113.75 116.267 113.75H141.754C145.386 113.75 148.322 116.703 148.322 120.336V144.733C148.322 185.937 114.698 219.409 73.5272 219.006H73.5427Z" fill="#2B3845"/>
<path d="M141.771 68.7861H116.275C112.649 68.7861 109.708 71.7347 109.708 75.372V89.6828C109.708 93.3202 112.649 96.2687 116.275 96.2687H141.771C145.398 96.2687 148.338 93.3202 148.338 89.6828V75.372C148.338 71.7347 145.398 68.7861 141.771 68.7861Z" fill="#F49643"/>
<path d="M429.395 130H382.568C378.941 130 376 132.949 376 136.586V150.897C376 154.534 378.941 157.483 382.568 157.483H429.395C433.024 157.483 435.963 154.534 435.963 150.897V136.586C435.963 132.949 433.024 130 429.395 130Z" fill="#2B3845"/>
<path d="M32.0624 68.7861H6.56701C2.94016 68.7861 0 71.7347 0 75.372V89.6828C0 93.3202 2.94016 96.2687 6.56701 96.2687H32.0624C35.6893 96.2687 38.6296 93.3202 38.6296 89.6828V75.372C38.6296 71.7347 35.6893 68.7861 32.0624 68.7861Z" fill="#F49643"/>
<path d="M631.256 218.097H576.339C535.563 218.097 501.731 185.446 501.336 144.552C500.936 103.262 534.32 69.542 575.397 69.542H631.256C634.888 69.542 637.821 72.494 637.821 76.1279V101.689C637.821 105.331 634.88 108.275 631.256 108.275H575.992C556.592 108.275 540.336 123.67 539.965 143.126C539.587 163.031 555.627 179.349 575.397 179.349H631.256C634.888 179.349 637.821 182.301 637.821 185.934V211.496C637.821 215.137 634.88 218.081 631.256 218.081V218.097Z" fill="#2B3845"/>
<path d="M586.896 130H540.067C536.44 130 533.499 132.949 533.499 136.586V150.897C533.499 154.534 536.44 157.483 540.067 157.483H586.896C590.523 157.483 593.464 154.534 593.464 150.897V136.586C593.464 132.949 590.523 130 586.896 130Z" fill="#2B3845"/>
<path d="M723.784 218.12H667.901C664.269 218.12 661.333 215.168 661.333 211.534V76.1513C661.333 72.5097 664.277 69.5654 667.901 69.5654H724.728C765.813 69.5654 799.189 103.285 798.787 144.575C798.395 185.47 764.555 218.12 723.784 218.12ZM703.864 179.38H724.133C743.531 179.38 759.787 163.984 760.157 144.529C760.536 124.624 744.499 108.306 724.728 108.306H703.864C700.232 108.306 697.296 111.258 697.296 114.892V172.786C697.296 176.428 700.24 179.372 703.864 179.372V179.38Z" fill="#2B3845"/>
</g>
<defs>
<clipPath id="clip0_3357_1475">
<rect width="55" height="68.4444" fill="white" transform="translate(47 0.5)"/>
</clipPath>
<clipPath id="clip1_3357_1475">
<rect width="800" height="152" fill="white" transform="translate(0 68.5)"/>
</clipPath>
</defs>
</svg>
